<mxfile host="app.diagrams.net" modified="2020-12-21T17:24:24.312Z" agent="5.0 (Windows NT 10.0; Win64; x64) AppleWebKit/537.36 (KHTML, like Gecko) Chrome/87.0.4280.88 Safari/537.36" etag="omksZMNS7_tpz37qcFjM" version="14.0.4" type="github" pages="2">
  <diagram id="R2lEEEUBdFMjLlhIrx00" name="Overall BD">
    <mxGraphModel dx="1967" dy="927" grid="1" gridSize="10" guides="1" tooltips="1" connect="1" arrows="1" fold="1" page="1" pageScale="1" pageWidth="850" pageHeight="1100" math="0" shadow="0" extFonts="Permanent Marker^https://fonts.googleapis.com/css?family=Permanent+Marker">
      <root>
        <mxCell id="0" />
        <mxCell id="1" parent="0" />
        <mxCell id="C-vyLk0tnHw3VtMMgP7b-1" value="" style="edgeStyle=entityRelationEdgeStyle;endArrow=ERone;startArrow=ERone;endFill=0;startFill=0;" parent="1" source="C-vyLk0tnHw3VtMMgP7b-24" target="C-vyLk0tnHw3VtMMgP7b-6" edge="1">
          <mxGeometry width="100" height="100" relative="1" as="geometry">
            <mxPoint x="440" y="740" as="sourcePoint" />
            <mxPoint x="540" y="640" as="targetPoint" />
          </mxGeometry>
        </mxCell>
        <mxCell id="C-vyLk0tnHw3VtMMgP7b-2" value="UsersCredentials" style="shape=table;startSize=30;container=1;collapsible=1;childLayout=tableLayout;fixedRows=1;rowLines=0;fontStyle=1;align=center;resizeLast=1;" parent="1" vertex="1">
          <mxGeometry x="550" y="140" width="250" height="160" as="geometry">
            <mxRectangle x="450" y="120" width="130" height="30" as="alternateBounds" />
          </mxGeometry>
        </mxCell>
        <mxCell id="C-vyLk0tnHw3VtMMgP7b-3" value="" style="shape=partialRectangle;collapsible=0;dropTarget=0;pointerEvents=0;fillColor=none;points=[[0,0.5],[1,0.5]];portConstraint=eastwest;top=0;left=0;right=0;bottom=1;" parent="C-vyLk0tnHw3VtMMgP7b-2" vertex="1">
          <mxGeometry y="30" width="250" height="30" as="geometry" />
        </mxCell>
        <mxCell id="C-vyLk0tnHw3VtMMgP7b-4" value="PK" style="shape=partialRectangle;overflow=hidden;connectable=0;fillColor=none;top=0;left=0;bottom=0;right=0;fontStyle=1;" parent="C-vyLk0tnHw3VtMMgP7b-3" vertex="1">
          <mxGeometry width="30" height="30" as="geometry" />
        </mxCell>
        <mxCell id="C-vyLk0tnHw3VtMMgP7b-5" value="id" style="shape=partialRectangle;overflow=hidden;connectable=0;fillColor=none;top=0;left=0;bottom=0;right=0;align=left;spacingLeft=6;fontStyle=5;" parent="C-vyLk0tnHw3VtMMgP7b-3" vertex="1">
          <mxGeometry x="30" width="220" height="30" as="geometry" />
        </mxCell>
        <mxCell id="C-vyLk0tnHw3VtMMgP7b-6" value="" style="shape=partialRectangle;collapsible=0;dropTarget=0;pointerEvents=0;fillColor=none;points=[[0,0.5],[1,0.5]];portConstraint=eastwest;top=0;left=0;right=0;bottom=0;" parent="C-vyLk0tnHw3VtMMgP7b-2" vertex="1">
          <mxGeometry y="60" width="250" height="30" as="geometry" />
        </mxCell>
        <mxCell id="C-vyLk0tnHw3VtMMgP7b-7" value="FK1" style="shape=partialRectangle;overflow=hidden;connectable=0;fillColor=none;top=0;left=0;bottom=0;right=0;" parent="C-vyLk0tnHw3VtMMgP7b-6" vertex="1">
          <mxGeometry width="30" height="30" as="geometry" />
        </mxCell>
        <mxCell id="C-vyLk0tnHw3VtMMgP7b-8" value="user id" style="shape=partialRectangle;overflow=hidden;connectable=0;fillColor=none;top=0;left=0;bottom=0;right=0;align=left;spacingLeft=6;" parent="C-vyLk0tnHw3VtMMgP7b-6" vertex="1">
          <mxGeometry x="30" width="220" height="30" as="geometry" />
        </mxCell>
        <mxCell id="C-vyLk0tnHw3VtMMgP7b-9" value="" style="shape=partialRectangle;collapsible=0;dropTarget=0;pointerEvents=0;fillColor=none;points=[[0,0.5],[1,0.5]];portConstraint=eastwest;top=0;left=0;right=0;bottom=0;" parent="C-vyLk0tnHw3VtMMgP7b-2" vertex="1">
          <mxGeometry y="90" width="250" height="30" as="geometry" />
        </mxCell>
        <mxCell id="C-vyLk0tnHw3VtMMgP7b-10" value="" style="shape=partialRectangle;overflow=hidden;connectable=0;fillColor=none;top=0;left=0;bottom=0;right=0;" parent="C-vyLk0tnHw3VtMMgP7b-9" vertex="1">
          <mxGeometry width="30" height="30" as="geometry" />
        </mxCell>
        <mxCell id="C-vyLk0tnHw3VtMMgP7b-11" value="user name" style="shape=partialRectangle;overflow=hidden;connectable=0;fillColor=none;top=0;left=0;bottom=0;right=0;align=left;spacingLeft=6;" parent="C-vyLk0tnHw3VtMMgP7b-9" vertex="1">
          <mxGeometry x="30" width="220" height="30" as="geometry" />
        </mxCell>
        <mxCell id="wrIfhEXLq_8IsfIZYc5J-1" value="" style="shape=partialRectangle;collapsible=0;dropTarget=0;pointerEvents=0;fillColor=none;points=[[0,0.5],[1,0.5]];portConstraint=eastwest;top=0;left=0;right=0;bottom=0;" vertex="1" parent="C-vyLk0tnHw3VtMMgP7b-2">
          <mxGeometry y="120" width="250" height="30" as="geometry" />
        </mxCell>
        <mxCell id="wrIfhEXLq_8IsfIZYc5J-2" value="" style="shape=partialRectangle;overflow=hidden;connectable=0;fillColor=none;top=0;left=0;bottom=0;right=0;" vertex="1" parent="wrIfhEXLq_8IsfIZYc5J-1">
          <mxGeometry width="30" height="30" as="geometry" />
        </mxCell>
        <mxCell id="wrIfhEXLq_8IsfIZYc5J-3" value="password" style="shape=partialRectangle;overflow=hidden;connectable=0;fillColor=none;top=0;left=0;bottom=0;right=0;align=left;spacingLeft=6;" vertex="1" parent="wrIfhEXLq_8IsfIZYc5J-1">
          <mxGeometry x="30" width="220" height="30" as="geometry" />
        </mxCell>
        <mxCell id="C-vyLk0tnHw3VtMMgP7b-13" value="Subscriptions" style="shape=table;startSize=30;container=1;collapsible=1;childLayout=tableLayout;fixedRows=1;rowLines=0;fontStyle=1;align=center;resizeLast=1;" parent="1" vertex="1">
          <mxGeometry x="210" y="555" width="250" height="130" as="geometry" />
        </mxCell>
        <mxCell id="C-vyLk0tnHw3VtMMgP7b-14" value="" style="shape=partialRectangle;collapsible=0;dropTarget=0;pointerEvents=0;fillColor=none;points=[[0,0.5],[1,0.5]];portConstraint=eastwest;top=0;left=0;right=0;bottom=1;" parent="C-vyLk0tnHw3VtMMgP7b-13" vertex="1">
          <mxGeometry y="30" width="250" height="30" as="geometry" />
        </mxCell>
        <mxCell id="C-vyLk0tnHw3VtMMgP7b-15" value="PK" style="shape=partialRectangle;overflow=hidden;connectable=0;fillColor=none;top=0;left=0;bottom=0;right=0;fontStyle=1;" parent="C-vyLk0tnHw3VtMMgP7b-14" vertex="1">
          <mxGeometry width="30" height="30" as="geometry" />
        </mxCell>
        <mxCell id="C-vyLk0tnHw3VtMMgP7b-16" value="id" style="shape=partialRectangle;overflow=hidden;connectable=0;fillColor=none;top=0;left=0;bottom=0;right=0;align=left;spacingLeft=6;fontStyle=5;" parent="C-vyLk0tnHw3VtMMgP7b-14" vertex="1">
          <mxGeometry x="30" width="220" height="30" as="geometry" />
        </mxCell>
        <mxCell id="C-vyLk0tnHw3VtMMgP7b-17" value="" style="shape=partialRectangle;collapsible=0;dropTarget=0;pointerEvents=0;fillColor=none;points=[[0,0.5],[1,0.5]];portConstraint=eastwest;top=0;left=0;right=0;bottom=0;" parent="C-vyLk0tnHw3VtMMgP7b-13" vertex="1">
          <mxGeometry y="60" width="250" height="30" as="geometry" />
        </mxCell>
        <mxCell id="C-vyLk0tnHw3VtMMgP7b-18" value="FK1" style="shape=partialRectangle;overflow=hidden;connectable=0;fillColor=none;top=0;left=0;bottom=0;right=0;" parent="C-vyLk0tnHw3VtMMgP7b-17" vertex="1">
          <mxGeometry width="30" height="30" as="geometry" />
        </mxCell>
        <mxCell id="C-vyLk0tnHw3VtMMgP7b-19" value="Member id" style="shape=partialRectangle;overflow=hidden;connectable=0;fillColor=none;top=0;left=0;bottom=0;right=0;align=left;spacingLeft=6;" parent="C-vyLk0tnHw3VtMMgP7b-17" vertex="1">
          <mxGeometry x="30" width="220" height="30" as="geometry" />
        </mxCell>
        <mxCell id="C-vyLk0tnHw3VtMMgP7b-20" value="" style="shape=partialRectangle;collapsible=0;dropTarget=0;pointerEvents=0;fillColor=none;points=[[0,0.5],[1,0.5]];portConstraint=eastwest;top=0;left=0;right=0;bottom=0;" parent="C-vyLk0tnHw3VtMMgP7b-13" vertex="1">
          <mxGeometry y="90" width="250" height="30" as="geometry" />
        </mxCell>
        <mxCell id="C-vyLk0tnHw3VtMMgP7b-21" value="FK2" style="shape=partialRectangle;overflow=hidden;connectable=0;fillColor=none;top=0;left=0;bottom=0;right=0;" parent="C-vyLk0tnHw3VtMMgP7b-20" vertex="1">
          <mxGeometry width="30" height="30" as="geometry" />
        </mxCell>
        <mxCell id="C-vyLk0tnHw3VtMMgP7b-22" value="Movies [ ]" style="shape=partialRectangle;overflow=hidden;connectable=0;fillColor=none;top=0;left=0;bottom=0;right=0;align=left;spacingLeft=6;" parent="C-vyLk0tnHw3VtMMgP7b-20" vertex="1">
          <mxGeometry x="30" width="220" height="30" as="geometry" />
        </mxCell>
        <mxCell id="C-vyLk0tnHw3VtMMgP7b-23" value="Users" style="shape=table;startSize=30;container=1;collapsible=1;childLayout=tableLayout;fixedRows=1;rowLines=0;fontStyle=1;align=center;resizeLast=1;" parent="1" vertex="1">
          <mxGeometry x="200" y="140" width="250" height="100" as="geometry" />
        </mxCell>
        <mxCell id="C-vyLk0tnHw3VtMMgP7b-24" value="" style="shape=partialRectangle;collapsible=0;dropTarget=0;pointerEvents=0;fillColor=none;points=[[0,0.5],[1,0.5]];portConstraint=eastwest;top=0;left=0;right=0;bottom=1;" parent="C-vyLk0tnHw3VtMMgP7b-23" vertex="1">
          <mxGeometry y="30" width="250" height="30" as="geometry" />
        </mxCell>
        <mxCell id="C-vyLk0tnHw3VtMMgP7b-25" value="PK" style="shape=partialRectangle;overflow=hidden;connectable=0;fillColor=none;top=0;left=0;bottom=0;right=0;fontStyle=1;" parent="C-vyLk0tnHw3VtMMgP7b-24" vertex="1">
          <mxGeometry width="30" height="30" as="geometry" />
        </mxCell>
        <mxCell id="C-vyLk0tnHw3VtMMgP7b-26" value="user id" style="shape=partialRectangle;overflow=hidden;connectable=0;fillColor=none;top=0;left=0;bottom=0;right=0;align=left;spacingLeft=6;fontStyle=5;" parent="C-vyLk0tnHw3VtMMgP7b-24" vertex="1">
          <mxGeometry x="30" width="220" height="30" as="geometry" />
        </mxCell>
        <mxCell id="C-vyLk0tnHw3VtMMgP7b-27" value="" style="shape=partialRectangle;collapsible=0;dropTarget=0;pointerEvents=0;fillColor=none;points=[[0,0.5],[1,0.5]];portConstraint=eastwest;top=0;left=0;right=0;bottom=0;" parent="C-vyLk0tnHw3VtMMgP7b-23" vertex="1">
          <mxGeometry y="60" width="250" height="30" as="geometry" />
        </mxCell>
        <mxCell id="C-vyLk0tnHw3VtMMgP7b-28" value="" style="shape=partialRectangle;overflow=hidden;connectable=0;fillColor=none;top=0;left=0;bottom=0;right=0;" parent="C-vyLk0tnHw3VtMMgP7b-27" vertex="1">
          <mxGeometry width="30" height="30" as="geometry" />
        </mxCell>
        <mxCell id="C-vyLk0tnHw3VtMMgP7b-29" value="customer_name char(50) NOT NULL" style="shape=partialRectangle;overflow=hidden;connectable=0;fillColor=none;top=0;left=0;bottom=0;right=0;align=left;spacingLeft=6;" parent="C-vyLk0tnHw3VtMMgP7b-27" vertex="1">
          <mxGeometry x="30" width="220" height="30" as="geometry" />
        </mxCell>
        <mxCell id="wrIfhEXLq_8IsfIZYc5J-5" value="Permissions" style="shape=table;startSize=30;container=1;collapsible=1;childLayout=tableLayout;fixedRows=1;rowLines=0;fontStyle=1;align=center;resizeLast=1;" vertex="1" parent="1">
          <mxGeometry x="200" y="310" width="250" height="100" as="geometry" />
        </mxCell>
        <mxCell id="wrIfhEXLq_8IsfIZYc5J-6" value="" style="shape=partialRectangle;collapsible=0;dropTarget=0;pointerEvents=0;fillColor=none;points=[[0,0.5],[1,0.5]];portConstraint=eastwest;top=0;left=0;right=0;bottom=1;" vertex="1" parent="wrIfhEXLq_8IsfIZYc5J-5">
          <mxGeometry y="30" width="250" height="30" as="geometry" />
        </mxCell>
        <mxCell id="wrIfhEXLq_8IsfIZYc5J-7" value="PK" style="shape=partialRectangle;overflow=hidden;connectable=0;fillColor=none;top=0;left=0;bottom=0;right=0;fontStyle=1;" vertex="1" parent="wrIfhEXLq_8IsfIZYc5J-6">
          <mxGeometry width="30" height="30" as="geometry" />
        </mxCell>
        <mxCell id="wrIfhEXLq_8IsfIZYc5J-8" value="id" style="shape=partialRectangle;overflow=hidden;connectable=0;fillColor=none;top=0;left=0;bottom=0;right=0;align=left;spacingLeft=6;fontStyle=5;" vertex="1" parent="wrIfhEXLq_8IsfIZYc5J-6">
          <mxGeometry x="30" width="220" height="30" as="geometry" />
        </mxCell>
        <mxCell id="wrIfhEXLq_8IsfIZYc5J-9" value="" style="shape=partialRectangle;collapsible=0;dropTarget=0;pointerEvents=0;fillColor=none;points=[[0,0.5],[1,0.5]];portConstraint=eastwest;top=0;left=0;right=0;bottom=0;" vertex="1" parent="wrIfhEXLq_8IsfIZYc5J-5">
          <mxGeometry y="60" width="250" height="30" as="geometry" />
        </mxCell>
        <mxCell id="wrIfhEXLq_8IsfIZYc5J-10" value="FK" style="shape=partialRectangle;overflow=hidden;connectable=0;fillColor=none;top=0;left=0;bottom=0;right=0;" vertex="1" parent="wrIfhEXLq_8IsfIZYc5J-9">
          <mxGeometry width="30" height="30" as="geometry" />
        </mxCell>
        <mxCell id="wrIfhEXLq_8IsfIZYc5J-11" value="user id" style="shape=partialRectangle;overflow=hidden;connectable=0;fillColor=none;top=0;left=0;bottom=0;right=0;align=left;spacingLeft=6;" vertex="1" parent="wrIfhEXLq_8IsfIZYc5J-9">
          <mxGeometry x="30" width="220" height="30" as="geometry" />
        </mxCell>
        <mxCell id="wrIfhEXLq_8IsfIZYc5J-13" value="" style="edgeStyle=entityRelationEdgeStyle;fontSize=12;html=1;endArrow=ERone;endFill=1;" edge="1" parent="1" source="wrIfhEXLq_8IsfIZYc5J-6">
          <mxGeometry width="100" height="100" relative="1" as="geometry">
            <mxPoint x="100" y="290" as="sourcePoint" />
            <mxPoint x="200" y="190" as="targetPoint" />
          </mxGeometry>
        </mxCell>
        <mxCell id="wrIfhEXLq_8IsfIZYc5J-14" value="Movies" style="shape=table;startSize=30;container=1;collapsible=1;childLayout=tableLayout;fixedRows=1;rowLines=0;fontStyle=1;align=center;resizeLast=1;" vertex="1" parent="1">
          <mxGeometry x="-170" y="525" width="250" height="190" as="geometry" />
        </mxCell>
        <mxCell id="wrIfhEXLq_8IsfIZYc5J-15" value="" style="shape=partialRectangle;collapsible=0;dropTarget=0;pointerEvents=0;fillColor=none;points=[[0,0.5],[1,0.5]];portConstraint=eastwest;top=0;left=0;right=0;bottom=1;" vertex="1" parent="wrIfhEXLq_8IsfIZYc5J-14">
          <mxGeometry y="30" width="250" height="30" as="geometry" />
        </mxCell>
        <mxCell id="wrIfhEXLq_8IsfIZYc5J-16" value="PK" style="shape=partialRectangle;overflow=hidden;connectable=0;fillColor=none;top=0;left=0;bottom=0;right=0;fontStyle=1;" vertex="1" parent="wrIfhEXLq_8IsfIZYc5J-15">
          <mxGeometry width="30" height="30" as="geometry" />
        </mxCell>
        <mxCell id="wrIfhEXLq_8IsfIZYc5J-17" value="id" style="shape=partialRectangle;overflow=hidden;connectable=0;fillColor=none;top=0;left=0;bottom=0;right=0;align=left;spacingLeft=6;fontStyle=5;" vertex="1" parent="wrIfhEXLq_8IsfIZYc5J-15">
          <mxGeometry x="30" width="220" height="30" as="geometry" />
        </mxCell>
        <mxCell id="wrIfhEXLq_8IsfIZYc5J-18" value="" style="shape=partialRectangle;collapsible=0;dropTarget=0;pointerEvents=0;fillColor=none;points=[[0,0.5],[1,0.5]];portConstraint=eastwest;top=0;left=0;right=0;bottom=0;" vertex="1" parent="wrIfhEXLq_8IsfIZYc5J-14">
          <mxGeometry y="60" width="250" height="30" as="geometry" />
        </mxCell>
        <mxCell id="wrIfhEXLq_8IsfIZYc5J-19" value="" style="shape=partialRectangle;overflow=hidden;connectable=0;fillColor=none;top=0;left=0;bottom=0;right=0;" vertex="1" parent="wrIfhEXLq_8IsfIZYc5J-18">
          <mxGeometry width="30" height="30" as="geometry" />
        </mxCell>
        <mxCell id="wrIfhEXLq_8IsfIZYc5J-20" value="Name" style="shape=partialRectangle;overflow=hidden;connectable=0;fillColor=none;top=0;left=0;bottom=0;right=0;align=left;spacingLeft=6;" vertex="1" parent="wrIfhEXLq_8IsfIZYc5J-18">
          <mxGeometry x="30" width="220" height="30" as="geometry" />
        </mxCell>
        <mxCell id="wrIfhEXLq_8IsfIZYc5J-28" value="" style="shape=partialRectangle;collapsible=0;dropTarget=0;pointerEvents=0;fillColor=none;points=[[0,0.5],[1,0.5]];portConstraint=eastwest;top=0;left=0;right=0;bottom=0;" vertex="1" parent="wrIfhEXLq_8IsfIZYc5J-14">
          <mxGeometry y="90" width="250" height="30" as="geometry" />
        </mxCell>
        <mxCell id="wrIfhEXLq_8IsfIZYc5J-29" value="" style="shape=partialRectangle;overflow=hidden;connectable=0;fillColor=none;top=0;left=0;bottom=0;right=0;" vertex="1" parent="wrIfhEXLq_8IsfIZYc5J-28">
          <mxGeometry width="30" height="30" as="geometry" />
        </mxCell>
        <mxCell id="wrIfhEXLq_8IsfIZYc5J-30" value="Genres " style="shape=partialRectangle;overflow=hidden;connectable=0;fillColor=none;top=0;left=0;bottom=0;right=0;align=left;spacingLeft=6;" vertex="1" parent="wrIfhEXLq_8IsfIZYc5J-28">
          <mxGeometry x="30" width="220" height="30" as="geometry" />
        </mxCell>
        <mxCell id="wrIfhEXLq_8IsfIZYc5J-31" value="" style="shape=partialRectangle;collapsible=0;dropTarget=0;pointerEvents=0;fillColor=none;points=[[0,0.5],[1,0.5]];portConstraint=eastwest;top=0;left=0;right=0;bottom=0;" vertex="1" parent="wrIfhEXLq_8IsfIZYc5J-14">
          <mxGeometry y="120" width="250" height="30" as="geometry" />
        </mxCell>
        <mxCell id="wrIfhEXLq_8IsfIZYc5J-32" value="" style="shape=partialRectangle;overflow=hidden;connectable=0;fillColor=none;top=0;left=0;bottom=0;right=0;" vertex="1" parent="wrIfhEXLq_8IsfIZYc5J-31">
          <mxGeometry width="30" height="30" as="geometry" />
        </mxCell>
        <mxCell id="wrIfhEXLq_8IsfIZYc5J-33" value="Image" style="shape=partialRectangle;overflow=hidden;connectable=0;fillColor=none;top=0;left=0;bottom=0;right=0;align=left;spacingLeft=6;" vertex="1" parent="wrIfhEXLq_8IsfIZYc5J-31">
          <mxGeometry x="30" width="220" height="30" as="geometry" />
        </mxCell>
        <mxCell id="wrIfhEXLq_8IsfIZYc5J-34" value="" style="shape=partialRectangle;collapsible=0;dropTarget=0;pointerEvents=0;fillColor=none;points=[[0,0.5],[1,0.5]];portConstraint=eastwest;top=0;left=0;right=0;bottom=0;" vertex="1" parent="wrIfhEXLq_8IsfIZYc5J-14">
          <mxGeometry y="150" width="250" height="30" as="geometry" />
        </mxCell>
        <mxCell id="wrIfhEXLq_8IsfIZYc5J-35" value="" style="shape=partialRectangle;overflow=hidden;connectable=0;fillColor=none;top=0;left=0;bottom=0;right=0;" vertex="1" parent="wrIfhEXLq_8IsfIZYc5J-34">
          <mxGeometry width="30" height="30" as="geometry" />
        </mxCell>
        <mxCell id="wrIfhEXLq_8IsfIZYc5J-36" value="Premiered" style="shape=partialRectangle;overflow=hidden;connectable=0;fillColor=none;top=0;left=0;bottom=0;right=0;align=left;spacingLeft=6;" vertex="1" parent="wrIfhEXLq_8IsfIZYc5J-34">
          <mxGeometry x="30" width="220" height="30" as="geometry" />
        </mxCell>
        <mxCell id="wrIfhEXLq_8IsfIZYc5J-37" value="Members" style="shape=table;startSize=30;container=1;collapsible=1;childLayout=tableLayout;fixedRows=1;rowLines=0;fontStyle=1;align=center;resizeLast=1;" vertex="1" parent="1">
          <mxGeometry x="560" y="540" width="250" height="160" as="geometry" />
        </mxCell>
        <mxCell id="wrIfhEXLq_8IsfIZYc5J-38" value="" style="shape=partialRectangle;collapsible=0;dropTarget=0;pointerEvents=0;fillColor=none;points=[[0,0.5],[1,0.5]];portConstraint=eastwest;top=0;left=0;right=0;bottom=1;" vertex="1" parent="wrIfhEXLq_8IsfIZYc5J-37">
          <mxGeometry y="30" width="250" height="30" as="geometry" />
        </mxCell>
        <mxCell id="wrIfhEXLq_8IsfIZYc5J-39" value="PK" style="shape=partialRectangle;overflow=hidden;connectable=0;fillColor=none;top=0;left=0;bottom=0;right=0;fontStyle=1;" vertex="1" parent="wrIfhEXLq_8IsfIZYc5J-38">
          <mxGeometry width="30" height="30" as="geometry" />
        </mxCell>
        <mxCell id="wrIfhEXLq_8IsfIZYc5J-40" value="id" style="shape=partialRectangle;overflow=hidden;connectable=0;fillColor=none;top=0;left=0;bottom=0;right=0;align=left;spacingLeft=6;fontStyle=5;" vertex="1" parent="wrIfhEXLq_8IsfIZYc5J-38">
          <mxGeometry x="30" width="220" height="30" as="geometry" />
        </mxCell>
        <mxCell id="wrIfhEXLq_8IsfIZYc5J-41" value="" style="shape=partialRectangle;collapsible=0;dropTarget=0;pointerEvents=0;fillColor=none;points=[[0,0.5],[1,0.5]];portConstraint=eastwest;top=0;left=0;right=0;bottom=0;" vertex="1" parent="wrIfhEXLq_8IsfIZYc5J-37">
          <mxGeometry y="60" width="250" height="30" as="geometry" />
        </mxCell>
        <mxCell id="wrIfhEXLq_8IsfIZYc5J-42" value="" style="shape=partialRectangle;overflow=hidden;connectable=0;fillColor=none;top=0;left=0;bottom=0;right=0;" vertex="1" parent="wrIfhEXLq_8IsfIZYc5J-41">
          <mxGeometry width="30" height="30" as="geometry" />
        </mxCell>
        <mxCell id="wrIfhEXLq_8IsfIZYc5J-43" value="Name" style="shape=partialRectangle;overflow=hidden;connectable=0;fillColor=none;top=0;left=0;bottom=0;right=0;align=left;spacingLeft=6;" vertex="1" parent="wrIfhEXLq_8IsfIZYc5J-41">
          <mxGeometry x="30" width="220" height="30" as="geometry" />
        </mxCell>
        <mxCell id="wrIfhEXLq_8IsfIZYc5J-44" value="" style="shape=partialRectangle;collapsible=0;dropTarget=0;pointerEvents=0;fillColor=none;points=[[0,0.5],[1,0.5]];portConstraint=eastwest;top=0;left=0;right=0;bottom=0;" vertex="1" parent="wrIfhEXLq_8IsfIZYc5J-37">
          <mxGeometry y="90" width="250" height="30" as="geometry" />
        </mxCell>
        <mxCell id="wrIfhEXLq_8IsfIZYc5J-45" value="" style="shape=partialRectangle;overflow=hidden;connectable=0;fillColor=none;top=0;left=0;bottom=0;right=0;" vertex="1" parent="wrIfhEXLq_8IsfIZYc5J-44">
          <mxGeometry width="30" height="30" as="geometry" />
        </mxCell>
        <mxCell id="wrIfhEXLq_8IsfIZYc5J-46" value="Email" style="shape=partialRectangle;overflow=hidden;connectable=0;fillColor=none;top=0;left=0;bottom=0;right=0;align=left;spacingLeft=6;" vertex="1" parent="wrIfhEXLq_8IsfIZYc5J-44">
          <mxGeometry x="30" width="220" height="30" as="geometry" />
        </mxCell>
        <mxCell id="wrIfhEXLq_8IsfIZYc5J-47" value="" style="shape=partialRectangle;collapsible=0;dropTarget=0;pointerEvents=0;fillColor=none;points=[[0,0.5],[1,0.5]];portConstraint=eastwest;top=0;left=0;right=0;bottom=0;" vertex="1" parent="wrIfhEXLq_8IsfIZYc5J-37">
          <mxGeometry y="120" width="250" height="30" as="geometry" />
        </mxCell>
        <mxCell id="wrIfhEXLq_8IsfIZYc5J-48" value="" style="shape=partialRectangle;overflow=hidden;connectable=0;fillColor=none;top=0;left=0;bottom=0;right=0;" vertex="1" parent="wrIfhEXLq_8IsfIZYc5J-47">
          <mxGeometry width="30" height="30" as="geometry" />
        </mxCell>
        <mxCell id="wrIfhEXLq_8IsfIZYc5J-49" value="City" style="shape=partialRectangle;overflow=hidden;connectable=0;fillColor=none;top=0;left=0;bottom=0;right=0;align=left;spacingLeft=6;" vertex="1" parent="wrIfhEXLq_8IsfIZYc5J-47">
          <mxGeometry x="30" width="220" height="30" as="geometry" />
        </mxCell>
        <mxCell id="wrIfhEXLq_8IsfIZYc5J-50" value="" style="edgeStyle=entityRelationEdgeStyle;fontSize=12;html=1;endArrow=ERzeroToMany;endFill=1;entryX=0;entryY=0.5;entryDx=0;entryDy=0;exitX=1;exitY=0.5;exitDx=0;exitDy=0;" edge="1" parent="1" source="wrIfhEXLq_8IsfIZYc5J-15" target="C-vyLk0tnHw3VtMMgP7b-20">
          <mxGeometry width="100" height="100" relative="1" as="geometry">
            <mxPoint x="470" y="440" as="sourcePoint" />
            <mxPoint x="550" y="380" as="targetPoint" />
          </mxGeometry>
        </mxCell>
        <mxCell id="wrIfhEXLq_8IsfIZYc5J-51" value="" style="edgeStyle=entityRelationEdgeStyle;fontSize=12;html=1;endArrow=ERzeroToMany;endFill=1;exitX=1;exitY=0.5;exitDx=0;exitDy=0;entryX=0;entryY=0.5;entryDx=0;entryDy=0;" edge="1" parent="1" source="C-vyLk0tnHw3VtMMgP7b-17" target="wrIfhEXLq_8IsfIZYc5J-38">
          <mxGeometry width="100" height="100" relative="1" as="geometry">
            <mxPoint x="290" y="630" as="sourcePoint" />
            <mxPoint x="390" y="530" as="targetPoint" />
          </mxGeometry>
        </mxCell>
      </root>
    </mxGraphModel>
  </diagram>
  <diagram id="Ae1WR3lPtCJ0CnQ77o5J" name="Page-2">
    <mxGraphModel dx="1117" dy="927" grid="1" gridSize="10" guides="1" tooltips="1" connect="1" arrows="1" fold="1" page="1" pageScale="1" pageWidth="850" pageHeight="1100" math="0" shadow="0">
      <root>
        <mxCell id="yZfeMcDywdAlZ5j1CTvz-0" />
        <mxCell id="yZfeMcDywdAlZ5j1CTvz-1" parent="yZfeMcDywdAlZ5j1CTvz-0" />
        <mxCell id="yZfeMcDywdAlZ5j1CTvz-2" value="" style="shape=image;verticalLabelPosition=bottom;labelBackgroundColor=#ffffff;verticalAlign=top;aspect=fixed;imageAspect=0;image=data:image/png,iVBORw0KGgoAAAANSUhEUgAAAggAAAEMCAYAAAChhU7oAAAgAElEQVR4XuxdB3RURRf+tqV3QkJCSei9SC8iTTooIEhTsdBEQIqiCAiCXUAERARRQLD8Ih0FRVF67yXSewjpvW12/3Nn9u2+3ewmu5vdZBPenJOTNjNv3p3ZmW9u+a5szntztd179IBMpoUMcshkclCRyWT8i/+i/53+IJcDMq1M93c5q0N/A6ge9UHftbrvCn1/vA41k4OeRvXkMi3/o+6ZanWerh/2ZF5HLodSpQQNjT+NBkFj0Ddl9fgfATlvqvuboQ77SU7jM7Tl7fjY+fhFner+Q6/KmnJpsKLVGo8b0PDnmxRD/4Z/UFNRc/0z6T3NFxpz/nGZ69tCB4X82dJzSYb8udY8iy0Jk2GK5WSuH0G27H+sreWxGL8EVab5oHWmm0H2Xfi7Ya7sk4muT5oroX/WtfCSwotaO96CR2Fmeq0bNlu25t7V1nFprJpj6wblGrVozWqgNfrcmo5MmEXHrBbXeG9pFJIEHCUB2Zz33tP27NELGjp8tfzQFjZyawEC29YZIOAAwxJAMIAGDhDoQKSPsFCoXV6ehh2epuMggCBXMAij26SLESDQoUNABTIjYCAet20Awbgf8SFs/iAuvQCBHdn5wJQILIl2Zgkg2PGxlgCCRaFJAMGO9SQ1kSQgkoDsvffmanv06AmtTAMZFE4HCAxMyBUWAYJGowV9CRoMYawqN1XJAQR+URXpD4zXED/UrdcgUE/0jgaAYbilSwDB2puvpEHgSF7SIFja0SWAIJ11kgSKJgGmQejRoxfrRc7Upzotgs7kYKRNEGsXaF8iDYBuP5fT/ZppBPiGxTUK3OTAVfcG9b1MpuB16JvunBQORrpskhbBoEHgu6BKpYBcqdBpEHRmDztMDPRssbreFhODJTWwPQCBmxkEYGB4EfNmBsdoEIxU5UbrxnkmBuExlrQIkomBS0gyMRRtIzPXWgIIjpep1OOjJQH7AYLglyCnw43BA6sBgl6DYAYgEBjIy+N+CDqswX5WKuVQkJmBmRgY5BDdwIWfC/dBeBQBAh3OtFm6AkAw1ZBIAEECCM7aciWA4CzJSv0+KhJwCEBgfgfkv2ClBoEAAqkeZHJtPg0C9cUdFXUbJ1dJMCdINw93Vl9whhP7KfDapQcgcDMD978w1WjkNzPYp0EwvbWXJECg9xSAivjDJQEECSA4a7OVAIKzJCv1+6hIwDaAQJponSOj4CNAFgT2sxFA4JEEBj8CXeSA/rCnRuYAAndcVKvVei9/btUoiwABej8EwXlTONDzmxkKBgiCNd7o4BWHSeiiECSAYPvHWgCkbBVKUQy2C7AEW0gAoQSFLz26TEjACCDQB0rwQ6DdkB36Ir8E9j8h5M0o9JFCieQ8KkEwpsp1EQdyAg/873pQQT4IDFgItld6DtcAkKaAfBDods1v0rpnkgbBzQ0y1p+gXRCNRwh/LCTM0VVMDMKNmkdsGMcG2gIQxKGFrBcTYGDQxJSsicHSp0XSIEgaBGftpBJAcJZkpX4fFQm4JEAgD3/yQ8gPEFTcjFHGAYJpBAdjYLDAg2AEECyAAwHUlbQGwdyHSgIIEkBw1mYrAQRnSVbq91GRQD6AINi/OdmQdRoEOrzkLDpARFxTBA0CnXNkZjAGCFoolSoolAqHAgS9RsQKoiRHRjEIC4yHdBprEGwBCEQEY40HfEk7KUoahIK3FGvm0GwPUpijRcFKAOFROcak93SWBPQ8CDrbgc6koONE4KenUfgjMwvoyIrEBxk3L+gYFHVmCG6eYPENOhMDtyuQFoAFP4pJcnS/COr13FwBIHDmRToFFQoFlEqlPn7B2ElRZ46wwcRg7AzI2xfEpFhcAIEZW4xYFc1rEGxZFK4CENg4RJoOBo3ETIUSk6It0yrxIBQgLQkg2LaUpNqSBEwlYCBKMjrULQME4cZt8Cfgu7tlgKDQcblwHwTunFg4QFCrycNf4AkggKBh7VQqlZ46tSwABHpHUzpisYz5hJUtgEBvJLyzZGLgMyxpEBy/OUsAwfEylXp8tCTAAEL37j1M8i04GiBwh0O9w6OcCI8saRDIVEEmBqJcFsIARQBBqeIaDVF+AIMpgnMkWMrFQIeRnLFFmssvUDIaBH5YGuimxcvPoEWQAEL+j6XEpMg/BBKToqUtWwIIj9ZhJr2t4yUge++997Tdu/e0DiCYiWDQ+yxYMDEYkj/p8iswE0PhAEFwVORAQBcFIZcxM4OCeBRsAAh6xkLG02A4bF3BxMA2MY2B90E8xQYTTtkDCIIWQTIxSBoEx29rOplKyZqcJVqp30dEAgwgdOveUxSCSLdwrkEQWAt5SCJ5EnBKXnaDp3BDwYkRgIJ+F2VGFEIe+d+EMEfBT4FnY9RnZmTXfh5WydvxaD2BMIlrHph1AgqZkrEq6hCC7gIl3P7ljESJUkGZK3K5UtfMFTQIBgcMrfbRAgh6ZketzryiuwVLyZrs2HUkDYJFoUkaBDvWk9REkoBIAgUCBL2N3yqAIE4JbOBEMAsQeL5oZncVcjWYAgRCBOSoqNcUEKAg24FWDpWSAw3m8KjXJOicFFn0ROkCCGTyEFgVTVcnNzOUTQ2CoEVg3/WcGFKyJpt2KAkgSADBpgUjVZYkYL0ECgQI+gPYDEAgwiK65Qt2coWuDn+0YwACaRCE2yYLZCjDAIHe05yzYlkHCAJIkACC9R9ao5oSQJAAgp1LR2omSaAwCeTzQRD4D4SsjnRoKRRCgiSemZGbGCgqQbDpG7I3mgcIgh+BzlTBeZh1GgTet/C7EA1BIINu1XrCJHqkQgatRsY0CIZ6guaidGsQxABBnLOA+yEYZ6AsbFLN/d+VwhzF49P7IOjTX0saBJvmVwIIEkCwacFIlc1JIDc3F1lZWYytlzH2imPwCxAZtcvOzoa7uzuLsCtrpZgAAj+8yUTAIx3NAwTGmKCLdtDqaJ6JMEmnlNCbGCiVtHgyjKIYSqmJgd7RsplBaZafwZbF6LoAgdmZAAkg2DKdhroSQJAAgn0r55FvRWfLjz/+iI8//hgXL17Uy6N69ep49dVXMXHiRLOHfnJyMlatWoUvv/wS169f17erUqUKxo8fjzFjxsDX19dqkOHKE8GYFCmKQTiYnaNBEACCIRrBnAZBAAg6lQIbE2kQ2O2aESXJmQ8CAQR96ucy4oPw6AIExgQh4gGQNAg2bRgSQJAAgk0LpmxWvn37NqKionD37l0EBAQgIiICTZs2NXtIZ2ZmYsKECdi4cSMSExMtCsTLywvt2rXDDz/8gODgYAYGnnvuOZw+fRrUh6VC2oSWLVti4cKFaN68eakWeKEAgd6O+RTSD5RkSR/FoNWFDHKHQZ1SQCcMUx+E/ACBuxcKoY+cndEQ1idEJfDETYwngJ5Bpg4dQJArFVCQY0IZAgiW/BAYewO9exGKK2sQeJIpgVBRAgg2TbMEECSAYNOCKRuVaa88dOgQvvnmG/z7779GN3nhDb29vdG6dWv069cPL774Inx8fHDlyhUMGTIEJ0+ehKenJ0aPHo1u3bqhTp06CAwMRHp6Ov777z/WJ/UdHR2NGjVqoGvXrli9ejUDBvT7888/j7Zt26JatWrw8/NDSkoKCKTs378fa9aswdWrV0EAY8aMGZg2bRpjAC6NpRCAwPI7QyanbI0KPbMRO8jJB4GRDvGDnfwSOAGRCRjQZ2QUQhgNWR0Nh7shNbQQ9cD/R457pEXIZeCE0R/oAIJMIWd8CMZRDMw/Us+0aDohrhrmKKZ3Nm9m4FkurbWLmVuIrggQuGbIMFopzNGOLUQCCBJAsGPZlOYm9+7dw6RJk/Drr78y7XJQUBDILEC3/PDwcJAJIC4uDrdu3WKHNmmhw8LC8Pnnn+Ott95if+/cuTPTIPj7+1sURUZGBoYOHYpt27ax59CBP3nyZLz77rvMT8FSoT38s88+w4cffsiAw6effoopU6YwDp/SVqzSIAgAQEieYAkgAMSYqHNk1KV+FvsHiLkR9CGUIlZEMTGQABDouCeAwBJKiwACHSwqparMAQR67/wggZtm8qeBtn65uRpAkKiWjedOolq2fi1bW1PiQbBWUiVbj/YCwSFd7KDNSPFMDlVS77dv3x5paWnw8PDAggULmL+ApcsTmQVIY3DixAn9vtq/f38GDqwp8+fPx5tvvsmcEI8cOYLGjRtb04zVOXv2LDNzEEAhMDNgwACr27pKRQcCBNIecJIj7pAokCPpogvy/c2gNRA0CZYAgkajhoZIlEQAgWwaSgVpEASCJt1VtJRrEMo6QDBd+JIGgUtEAgiO3xIlgOB4mTqyR3ISJPs+qfLv37/P1PsUFUBnBwEDut1HRkYyMwAd6nfu3GEHbnx8PIYPH46lS5cyf4PCCvX5v//9j/kPkKr/wYMHKFeuXGHN2Fj69OmDP/74AwcPHkSbNm0KbWNaYd++fejUqRPziSCzQ1G0wDY/3AEN8gEE2qlYKiXRzZ6FNTITgs7koDcxEAgQfBAKAgg6BkYhisFEayAmPDI2MfBDn3wQ8jR0gxb8Frglg0wMCh3Fs2DBpggJS9Z6W00M4sOroE2cj5nyKeS3n5tfEAJo0h0OJqdDfl8EA9iyd4G5ggZBfDsQ1q4EECSA4IB9zGwXEkBwlmSL1i/5Abz//vvsFk+aAOGCWKFCBXbg5+TkMNV8bGys/kEhISFITU1lPgBTp04F3extKbt372Z+A+QPQGYCWwppH5o1a2ZLE6O6pPEg3wTyYRgxYoTd/ZREQyOAwCaKOSTqmAp1DoAGgGBwLOQ+CBwgsMOa/cuSBkEMEHioo7Ao2IEnYkQ0BxDID0Kdp9Gp2DXM34FRKsvkXIug93MgVwXOr2CuFAkgaHTZKM107GiAQI8wNjMYmBTtNTOUNEDQ58MwiS+WAIIEEJy18UkAwVmSta9fOvgppHDevHkg7UHFihWZE+HgwYPRs2dP5kSovzhotSBfg7/++gs///wzU+8nJCQwzcKSJUtYKKGteyHtQaTuL26Hwc2bNzMNSGhoKHt30kqQT0RpKAwg9OjRix/Y5ErObuCinAlC1IKQjVH3O3MgZGYDcl4sGCAInAacB6FggMCBg2kyJkCdl6cDI6Th4NS8FBZJC4YvFB14cRBAEJj9xOyGlm7vzgAIxloE4wRT9mgRSgogmLJDmo5dAggSQHDWRikBBGdJ1vZ+iYSIVO2HDx9m9vyxY8cy572CnP3ETyHzQ+/evZmqn1T/9mgRbB+1Y1rQHki8PQROhEIgh2RQ3GDF1jcyNjHYDBB0QIKyLBagQbAfIHDYQuc/mRg0WrrFc0U+1yBQ9AS3VzkcIOh6LCmAYKxFMM7FYCtyFrQ1wmGcX8NiObTQfGps88vMQJfM/2+OOloCCOZlJ/kg2Lp1FV5fAgiFy6g4apBpgJz7bty4gVq1auH3339n4YH2lFOnTrEoAvIpoDDF0lLInEL7IUVEfP/992zYxLHwzz//2KwJKc53NtEg6CiPRdoCcxEMPKSR2yOY54ERQOA3ecFJUUx6pGdSFLIzGnEfGCiTDSmiBb8G0lbIkafJ5VkmiQ6Bkj3paJ85CnOEBkHvemHV4SZMlDM0CMIByw/Z/MmabAUJxalBMAcMjGVlWOKSBoHLQgIIjt/2JIDgeJna2iOZEsg5kMwEZIv/5ZdfmKq9KIXMr7buf0V5nqPbHj16lGkPCOwQodKff/7JuBRcsVgFEAzRBfwQLwmAQDwIBBA4D4IBIBAsUFK4o+D4WAQTA2dxsODAoCdkyj+NEkDgMtFLjoEa80XSIFiQi2WRFbxvSDwIBa41DbtaWCYZE8ReNBoyV9zaXWNM3333HV5++WWQAyKFKBYVHLjGWxV9FORP0atXL+ZbMXLkSHz99dcuCXpKFUDQIg+aPOYmodcg0Aeb+yHo/BaKEMXAtBIFbNTF6YMgLEHuiyCQUBkWpq0Iujg0CLQZF3YTlgCCBBCKvr1a14OkQbBOTs6qRdqDBg0asPC+CxcuoHbt2s56VKnsl0I7ydRCyZ4olJLYGl2tFAgQ9LdyE5OD4GgohDhCptGFRtLt3oyJgUUpiJI1CVEIZk0M4ggKg3qdOy5SdkfyQ+DOlAI9L4EDhYJTWZK/AqfuzR91UHAUA/drcDWAQK+iYUzT+ZGLLSDBkQDBnF+GwIooAQT7PuKFyc3yNZmbBfMXaymrhZZEcla27tESQLBvLTqqlaA96NChA7O1SyW/BCj8koDBoEGDmF+FqxUTJ0VjHwSHAQS61RPRkYgHQYhCMDVfcHu7EE5pDBDokCSAwDgHRACBgIrgDcrb8sPUdMMrrQCBNAicZ8G4iGVX2MJyJEAQP0uIthD6L+ygkzQI5meqMLlJAKGwFZ7//xJAsF1mjmzRpUsX/P3339iwYQOeeeYZR3ZdZvqi6A4igyJ6aCKCIrpoVyr5eRB02gLTg9sULHD6At1hXpgGwQEAgeVikBElpxYaRuls0CDwsZIWQeBh4CKWAIJhqTkDIJg6IxamgTE3J5KTom6tSj4IDt8XJYDgcJHa1CGlP6aDjwiPrA1ntOkBZaQyOSoeO3aMOSs++eSTLvVWeoAgbN4CMHBVgEBuhGqN2gxAoHBHg/ahLAEE0qpotYYYWvEKslaL4EiAYClKQQII9n+2JQ2C/bKz1FICCI6XqS09UhIluh1T5kRXKJqsJKTDB74erpVZkSIayElx8eLFLA21KxWbNAjCjZwxGZJ3sN4xkGd7FB9WPPugcTpmg4lBFx7JtBBCLgXhxi8maeL0xWRaIA2BYIdnhBNGJgZSwXM+BMaZpCuurUHQj9Ksf4HxIjEPENihLxBZFbKqigoQrFm0EkCwRkrm60gAwX7ZSQDB8bJzRI+U/ZDyFxAbor3l0PKJeGn1A+w88D9ECskQs+5gbKcuuD90A7ZObGR113fXDcQCjzn4fGADq9sUR0VKRU0poletWsUiPlypOBUg0G3fAADEPgjmAQK/9RvyOwj5DUwBAqPM1Gp4oia9KYHnilAqDQihLAEEkoFplkex3d/0XU0XmQQQ7PvY0cFtRDDFbGsEywSbgK3OgBJAsG8mbG8laRBsl5kjWlCa5K1bt7KESsR9UBQHxS0z++OdP5JQbdAn2PpmS7bfn934IYZ8ewaamqMR9XkXRwy5xPqgs4wIkw4dOoTt27cztkhXKgUCBH5gGw55WzUIzgEI3Akxj1z7dfRIfFx8nEqlIed2WQMI9L5ikCA+9AuK9RbmsShMitYsWkmDYI2UJIBgv5RsaykBBNvkVdTaUVFRLP3yTz/9pE/CRGYGyr5obyGAsE3ZBad+3IK/z+2CvyobM58fisajemL25hq4+HkXxP23B1PfWoA0mRvScr3x9oIv4H/qQ3yEqfhlSBge7vsKA5dr8Nuw4/hINg0f9IzAxoUzsP7gLahzsvD4C7PxRp9IzHnlJZzN8kblJ57H4klP2Ttkm9qRk2LVqlWRmJjIskxak53SpgcUsbLsvffe03bv3pMdrowoSAAE/FTRHbycLVF8EBs5KYryNRjCHHUREaJ0zMYmBiJc4qGI4oPcWIPA347XoboGJ0TSIFAoIwt11CdrkkGholyUhqRSYvmU1igGMZOiaaZHY9lZDlOzV4Mgjp4oTEshAQT7P42SicF+2VlqKQEEx8vUXI9k8iWGRMpUSAmZKJUyxfffunWL/U4cCOHh4XYNhgDCH5Ez0P74GKRM+BPD1L9iyOfxWD4pCN3WVGcAYeGoblBM2IrXG3kg4Y/pGLI5HJunt0Zw629x//ZX2PbOcMQOXIlR0WMwT/Y25kaeQdPn1uOtKc8C2mQs/P4sTqwfi/ptZmHDv2tRp2IwVDx3gFML7eUffvghZs6cCQJSMTExLpebQQ8QxOmd2YHsdIDA3QjsBQhEyqPN02kRdL4ONGS5Qs5SQAvAoqwBBHofQYtgemAXdIDbAxB4emaDe70EEHSgWTIxOHXjdFTnEkBwlCQL7mfRokWYMmUKo6d/++23MWPGDJaZMTo6mn2nr8L2DktP4ADhXbz3xB00fO0/jAnejnKvbkR/v191AKEz3urbFX1+3Y32boD2xvfoOus6dn8/DZ+2CkLHDffx7bxZ+HzFUqi3Pc8AwhTPnei5IBZ/rJ3KzwmlB4IDfZAScwVfzHgVv+X2xqE1U5wuPEoj3apVK30Sp88//xyTJk1y+nNteYCZdM88zwLxFhSmQdCbEHS5F6i+NRoEod+iAAQanoacFUUaBOEQZCmgy1CYo2kuBjH3gOlkW/og2goQDOmZJYAg+SDYsqW4Tl0JIDh/Lnbs2IG+ffsycPDbb7+xtM2OLAJAWPp8BAbUbYBj1Ybj3K7PkH5uhV6DsOnDEVhyrzmWTuiIn2e/gqxeX+KTES2Qef4TfLAlGrmeXfHJlN5I3coBwsdtM9Gjw8sYNv9r1HOPxq7LSkzqGYmV++PQvZ4co8Z/g4P71znyNfL1dfHiRfTo0QN3797F7Nmz8cEHH6BSpUq4du2a3WDKGQOWzZnznrZ7D25iYGhKrlP7a1kYgi6bopCiWeyPwGrrNQAMGFgBEOhEZ6yILBuj/RoE2rRJg8BvuXycbEQKnuGR54swVhOVBRODsAhIi2AODDgCIBgzJUoAQQIIzth6nN+nBBCcK2PaJ5o2bYrz588zFsD+/fs7/IEXd36H/4J6oH/LCrj52yIc9u+DIe1qIvn+Uaw4EYw3+1aDNicR29auwp4LD1C/07N4oW9LuLGtPxvzZ89Bx1Gz0bySB7Iv/YS/0Am96oYi5r99WLl2G7I8wzHohRFoEKzGuq+X4cx9NXo9PxpPNqrs8HcRd0gaF9IYPPvss1i3bh1z6CQzzcKFCzF58mSnPtuWzq0ACEJmRt0BzECEEIpIj+IHvnUAgQ/NEQCBoQsNMSvm5QMILD+DnIddiou9AEGwrRd0+AoRF9bd6A2AhsujMJac/NkcbcmYyJ8hM/bGN5YM+818embzrJTmFpnkg2DLR8+4bqFLwFLXUrImi0KXAIL969Galnv27EHnzp3RqFEjlpnQFup3a/ovy3Vyc3Px6aefMnMMFYr06NSpEyIiIpgWgUL2XaFYDxDk5BDI3f9cASAIVM10k+YHm0GDQM6LBBBMF6w9AEF8eywtAEEABOIFVhhAsAQ4BPBijQ1RAgj2f6QlgGC/7CxiJ5kMUjZHx8tV6PHVV1/F8uXLWeQC3YilYr8E6KJLzp30/caNGy5DuewyAEEwFVgbxSAABGpH9MtCIRMDy+Ukl5dZgGDwD5CZvfXrZSHSoBQEEHiuB/NFAggSD4L9217JtpQ0CM6VP9nQd+3ahYMHDzJCJKkUTQLEgUB0y6RBqFzZuSYOa0daCECgaABiTJQz3wSzGgTyI6Bcjlb5IPBhmZoYxAdaYQCBFAWMCYF8GHRaAwII+kNTl+6ZNgdTNY05DYJB92AsMtMzk0BHSWoQuCnH2AzADn2mPbF0uBsOfksAgbe3TPYjAQQJIFi7mbhaPQkgOHdGyCFx586dOHDgANq2bevchz0Cvb/00ktYu3YtS49N3AiuUBhA6Na9h/62zZwU2dFLJ7EIIMiIuZDbRbiJQXdgFgAQBOdB4btAg2w7QKCnaiHTRScw/gM5H6VQ8vJ0TnvkW6k7M021CKYAgfoQq3YNDo/mwYIlMiL+fpwW2rSYBxW2+iAUDAAKAwnCGMTmEuM2EkCwCLIkJkVX2KfsGoMEEOwSm9WNRo0ahW+++YbZ0t98802r20kVzUvglVdeAaXIvnLlCqpXr+4SYsoPEEQcCMLBwjQIRQQIXDMgOLwZRzEUrkHQtbMIEGS6WFIZJX3UH/qmWgRLAMHYa5878xkBBx0OcVWAwOCTNZoEXf4KBrCMigQQJIBgPirGJXYpOwchAQQ7BWdls927d6Nr165o2LAhzpw541LheVa+gsOqpaSksDDPIUOG2N1n69atmRyvX7+OsLAwu/txZMNCAILjNAj2AwSuWqei1yBw8gMjxkS9mUGkQaANgr4EZ8V8AIHr7I3kKajiyxpAEDZLJsd8VgkJIEgAQQIIjtxYH4W+1Go1hENt48aNjA/hUS3z58/HtGnTUKNGDWzZsgV169a1SRSpqakICQlhabGJgdJVKJf1Pgjs4KADlR2wnNOgIA0C1aeD98Tx44h+EK1nXhSU/noTBD/adX0JGgSB6dBYhsYmCeF/As+BiQ8AM20YO9cRSBBHNgrjN3w3/9x8M8nTPRiK7veCPfnNezOYa0OeqkOHDoe7uzuXjp0u7KZ9F6ZFKEouBimKQQespGRNNm18JVlZ0iA4X/qUYIiAAZ0F5I9AGoVHsezfv5/RJv/+++/scF+xYgUGDRpktSjIVEMmG0rctHfvXpcJGbUJIEDng2C4kcuxcOF8vDGVU1ZKxToJTJ8+HR9++LHeEcVRAIGebjlcsXAeBHOjl5wUJSdF61a169WSAELxzMnHH3+Md955h+09xAjYrVs31KlTh1EsO7scWjAESzOGYP2sfuxWN7BZBFq+twfT+lQHtNlo13QoVh36H1K2LsD0JZuR6x6M8XMX49m2jncCJI0KUSWvXLkSxHNASauICKmwQqH6HTp0YM6eBA4ef/zxwpoU2/9tAgha4kEwUtnL8d13q7BwwYJiG3BZeBAtopEjRzsFIFgCCQWFOUpRDJZXlZTuufR+4iSAUHxzR2yAzz//vNEDyTeB0j336dPH4RTMwoM0t35GuzH7cWDnEsg119CqdlsE9/0AOxaOhDZ1I9pMScHBJc3Qu+Xr2HH27wLitRwnq59//pn5IgQGBiI2NrZQ0iPikXjjjTfQokULHD161HEDcUBPBQIEbhrgqn0hjJGeyW37ZGJQSADBjklwNkAwBxIkgGDHROn8NSSqZftkV9KtJIBQfDNASZo++eQT1KxZkzmMk6OdUGbNmoW5c+c6ZzDadLzStS/G7fgbdQ9MxNz7LXBu3W5s2Lka1z5uje3N1kpGucAAACAASURBVODtJyvj8+fbY6fXYKyaPxmV/NycMxZRr1OnTmW0yY899hiOHz9u0WRADJSkMaC0zwQOmjVr5vSx2fKAQgCCIVeCBBBsEWvBdSWAYJCPmG+Cu2JYdpg0lqrg8yFyYmUuKcLfHZOuVdIgOG7dF3dPEkAoHolTwqHIyEioVCocPnyYUS/fv3+f5WigFMb0e5MmTZw2mPUzn8XRZp+h8XetUPmT89g3dzgafLgOuzrUwGsHo9G0khfUmYn47ceVWLZiAx6f/AVmDnYusVNSUhJzVKT3JznUq1cv3/sTVXWvXr0YOHDVUNH8AEFw/hOSNwmRADoiJEmDUPR1XhwAwVSLIGkQ7Js3CSDYJzdXaCUBhKLPgoYx1VLaGy37IvjupjLOE7B+/Xo899xzoFszefMXd7m9+0s8teAGZEcPYtPtA7i+ejzmX66P/dvO4/aVZQgQDVebsA3Nh/6DY7sWWH0Vsfd9vvzyS4wfPz7f4Z+eno6vv/5azx1BPmnz5s1zyTDRfACBh8obIhj0oYISQLB3neRrJwEESYNguijsDGThtKImScl439ZqYoSRSGGODvuAl4GOfvznOtbtuZaPMuXlrjUxsH2k0RsOHDgQv/76K9MetGrVqvjfPv0cnghrgQs91yDm58HIPf8/hDUbiTZLo/D7qHCor2xFn7lHMOWlzjiw/C1cazoD6952fOZJ0xe/cOECGjRowGRy6NAhZGdns4yNEydOBGkYlEoly+hIIMJVixFAkMu0RKysT+GsD3M0AQcsikFGNclJ8VssXCg5KdoywcUFEIQxCQyRUpijLbPE60oaBNtl5iotJA2C/TOhztNi1OIDiEnM1HfSrl4I3n62ERR0ixQVckYkNfqlS5dY9ELxlzzcizqLzOD6qBHsBuRlIOrcZZSr1wTlyd1Ak4O7N67jYVI63H2DUb1aFXgoHWOCLOhdo6OjER4ezkwvlBb78uXLSExMZE2ImppYE2vVqlX84rLhicYaBKILlvE0ycIXu4voAIKYFwEyDeQgJ0X7AYI24Qi+2yvDy/1asiEnHV2DfcoO6NvUGKHa8D6ANhUrPpiH/xI18AqshGGjR6FuiLdNXTi7sgQQDBKWfBAMQMSudSdpECyKTQIIdq0o1igxLRtz1p3Glfsp7HcvdyW+Gt8G5f098nVKN2RysDt37hy7MUuFS4DAQFBQkF4cwcHBGDp0KAYMGMAAApEiuXqRzZkzR9u9R082ToapGCVyIQBBZ9MpKkDIu/olui9QYfdXo9nzry/rg4Xeb2HpiLZYPrw+Wnx5Gs0CPHBj1xI8+78gHF013IQayYx4NTfQuf14fLL8Q8Se+AWjl6Xh1KFFKF8c6bU1cXixQnVMPRODhmH5P0jCaIsbIAjPlTQItn8cJQ2C7TJzlRYSQLB9JpLScrDnbDQOR8Xi2faRWLYjCrHJWfjwxWZoEBFotsPXX38dixcvxoYNG/DMM8/Y/tAy2oIcFCtUqMBMCVu3bkWXLl1KBSgQTwenWu7RTZSgyQAOxEyEYo0CC3FkIKJoJgYGED6T4/elI9mYbizvh8V+b2NAzi/oPe5LKDy9MWrx+zg6+S0cSQe8/Z/EhbubseD1l9CxthfGfrQZA+f9hM9Hd4ReY6S5gS5PzsTWv9dDlXofjRqPxtao7aiufoBPxz2Pxb+fR/PB72DdwvHwQwYWjhuARX/ex8uvDMb2q3VwYvVAPNelP17fuhEtvNIxPiISw/bfQ5vwbPwwezSmrfwLVTuOxrpv5yI87y5GP90Lf97xwqKftyLwz1fQa8ZOuHn7Ysaa/Zg+oKHZpV8SAEHYLBkGlKiWrd6SJIBgtahcrqIEEKyfkly1BrtP38cv+2/ijQENUK9KAGv8z9loHL8cjzcGWtYMnDx5Es2bN2dfZGs3zaJr/SjKVk3Kq0DRGxTGuG/fvlL5cnqAQKmcFXKW3DmfBsFUo8B5Ecg3qugAoXLzOfAI8mXCU6fEoO+CnVg8vDkWDaqP5kuPoU2oP65uW4ihv/jjwDcvwttLiZGdm+PppTvQpYoXxnRpj76rDmNwA50ZQXMDHao2Q5xvOPJyVZjx7UYMb1cVOz95Hhv9BmJYbR8cWvcRott+hrcrrcek/57Cty83xrEf38eEf5vi4vqhGNK+Jyb+9hva+qRhdIVKeOHIA2h2z8Dcc/XwTr/quP/nYuz0fAEz20bhleO9sPPVSsjVesLfIwFDQ2tj6vHbaFo1ECoSqJlSEgCBhiFpEGz/jEoAwXaZuUoLCSAUPhPkn7TzxD1sP3oHLz5ZA42qBsFdFKWgzqMstYDSwl5G/8vMzESVKlUQFxcHIv2ZMmVK4Q9+BGoQwyRFKBAfwuTJk0vlG8vefXe2tkevXiyvgYwlQSpegGDJxLBkUC20XHEBrQI9cPX3RRj0YwBOrH0RcuRhVL/++GDjVoTIgSUDmiN37GZM6VaJTwCZGDpOwfK1n+LgFyNx8rGF+OKFx7BkeDOcfmwkmnlyr+/67frD+7dhOP7Uz3i1fgju/LsK3Vd4cYDwRE9M3GEMEK4vH4jVyZ3xTAMyHchQrdmTeLKBP775fD4OXLiHvuPnYXBbPwwrVxVvXYhF43B6kPlSEgBBH+ZIyakkDYLVH1YJIFgtKperKAGEgqfkr9PR2HchBq1qB6NzozC4u9lvh42KimJMgEQ3/NFHHzHK4Ue5kINi7dq1kZaWxpwTKYlTaSyymbNmabv36MHUQiydsQ0AgequLoKTomUfhHZYObw23N/chd41wpF2eBW6z4/F7hWjEVo5FGM6NkSrWT9iQH1vjOg1FJM2HUC3SJ3Dh8jE4J5xHQ2bT8aWI5twffkLWJozHF+93ASJ108ht/KTCL00C6MPtcLKMc3x19ez8PGVHgwgTOjZFjWnrUHf4NsY1LYvFp2Lh/yfd/H635Ww4ePByHoQhRTPOqjhE4sERSjkF1Zg4mY/bFvyHEZVqoSnt5zG43WrIMDHvB9CyQIElrDBZK1K2RwtfXglgFAatzU+Zgkg5J870gicu5mIrYfvoHqYLwa1jzTSGBRlttesWYPXXnsNFOffv39/pkkgJkFvb67dpTA/IlCiQ5MiH8pqodwKL7zwAogfonfv3ti2bZtLchxYI3/ZzJmztF2e7AoPDw9DRkYTJ0VLJoaiAgTN7fV4caUCa+fxHNr3fhyJlW5jMOeZFnhwfDW6PDsHI5Zux5tPeOO1/v2wO60zDu6dj+kDe6Bluyr44KsjeHPVRrzWWRQqormH4S98hlXrFsFDm4elL3SG/8tr8FwbHyyc/DK+2hWF5gMm4atPxiFAm4n54wZg1dEsvDysI1afqcUAQmrUNgwY8gZkzQajZ8xmtF9+DM3D1fjl/fF459t/UL3j8/hq8Wx43d6BfoMmIrV8K6z8fhXaRPjg9rbp6D7pV0z9ZhdGdjKfEKREAYIQumcEEiSAIAEEiQfBmg2ztNYhkqO7celYsvUSqob6YFTP2hZNoEV5xyNHjrBDMT4+nnVDIX6kWYiIiADxApw9e5bxAhBngquXGTNmsNTLc+bMsVoDQOCAElcR7TSZXW7evFlqwQED2QQQOnbqDE9PTygYv4E1TorcB6GoAMG+BWJsYrCvj/ytxCYGR/VpqR9rAMLtB4nY/M855OlsgOb7siGWl82XrhdBgZDP1GDmKbo2Zrl4TKqbT3idv0/xqNkQhGeIf7FhEsLL+2NYz+Y6viCJapmLrmwSJWVl5yIhJQNeHm7w8XIv0DZujQYhW61GUkomvNxV8PW2HHlkw3J0uaoUsvj+j2dQt0oABj0eCX9v54bXkYZg9+7djBDozp07+eQxbNgwdrt29VK9enWWU4JyKViTIyEjI4OleKa01+7u7jh48KBTKaaLQ34MIHTo2Im9EKE9sbbAchRDSQIELQ7u2YNmnTrD3YESyoi5gl2XVehvwhLmwEfou7IGIExbvBXHL+b/cDljPGWhzy/efAbN6laWcjHoJ7P0A4Sc3Dzs2Hcexy7ews178YhJSEVmdo6RhSzQzwsVywcgsmIQnmxVB83rVeEXHRMTA8HG63disX3feVy7G4d7MUmITUoFPUMoKqWCgY7KoYGoWrEc2jauhvaP1YDchBiotHxe7sSm4397b8DDTYG+rSqjSojz0y+LZUMOkHSDvnfvHlJSUkBOe+TN37VrV3aIMsI9Fy2UX6JyZdpPgE2bNrGMlBSuaK5QOCORHi1fvpxpHIgcaePGjSXDKulgecpmzJyl7dSpM5ssMjPQd3MmBQNY4NELAiXzmtXfSUyKNk6KNQBhysLNOH35HnyCKkKusN95yMahlbrqGcmxUOdk4oPX+qJDs+oSQChhgJCYmsEO35T0LGRk5SAjMwdubkp4uqvg6eGG8GA/VAj2L/Dmn5iSgQ27T+GnXSdYH+ywl8uhULlDLleynwkl0AGUp85hXwJqiAwvh9ED2qFDs5pQKORQazQ4cOoa1v92DGev3DNIR6GCQunG+qL9jDhktZo8aPLURv2RdmpQ16bo0bYeCIyUhvIgMRO/Hb2DmKQs5mNQI9zPJYZN9MIdO3YEhf9RGugtW7awlMj2FNJMUIrpESNGsAPZ0UXILyH0S+Ps1q0bC1n09fVlGSuvXr0KCvH8999/WcIlumQ/9dRT+OKLLxAWFuboIZVIf3oNAgEAAgiEkow5D7j+Vw8a5JSpQSEBhCJMly0AIaRaY7YpSsW8BBKjryE7PUkCCPnEY+vtzD4fBI1GCwIFfx6Kwq9/n8LdmKRCl6qHmxKPP1YdL/RtjcohAfBwV+nbnLh0G9OXbEVqehY7vJVuXvAJCoObp69FW65Wo0FmShzSk2KQp85lILFRzYp4d3RPzFy2HVE3HjA7llyhhIdvELwDQhg4sFQ0mjxkpSUiPTEaGnUuAyL+Pp745PV+aFyrkvnUF4W+tfMrpGXlYtvhO/j7TDTeHdYElcu7FoMsSSAhIQGtW7fGlStXUL58eezYsYOp723VJowdO5YlPKI00jNnznSonZ/CNin74u3btzFu3Dim7YiNjUVqairIx0BcSOtOgIGAA/kdlAzVtPPWlhFAoEgG8kUQAwQBHOjpliWAUOTZkABCkUWo70ACCCWXrOlmdALmLN+Bm/fjkZ2j1s+JUuUBlYcPFCo3yJUqfjNX50Kdk4XszFRAyzdZ2mf8vD3w8tNt8Gy3ptjyz1ks+P4v5Krz4Oblh4DQSMgVBvBQ6KrRapGTnY6kB9fZ84RCfQRUqAaVhxfTFlhdSEORp0bKw5vIzkhhposRfVtj1IB2LgcSvv/rKk5ci8eEvnVRNdTXpc0i5MBIjozk0Eh0wz179sQ333wDoiK2tpDpgvIY0Bo6ffo0S63sqEJZKYm7gJwrifiJCvlVPHz4kPkjEMihs5KeSWPw8fFhX4KW3VHjcIV+9E6KwgdWrEUQBsiJkRgzEmQmAGHVNyuZusXUia0gYZn+z3xdYwe8wp3kBE83gy+eqYCF59CNIH8RNCWOnRZz70ZJTb7+egWCgsrpNsr84xFMDJIGoeD5kABC8QOE1PRsLFz3F/Ycv8yAAWm4vALKs0OdwAHd1C0VrVaDvNwc5GZnIjM1DjkZnOu/UmgAouNSmFOuf0gEPP2sPyxMn5Uaf5/d/ql4B4bBOzAUcnnRzHSkUUiOucG0CQQSXh3U3rEbhR295ag1TGNw6no8erWohOY1g+GmtAEA2fFMRzWhM+PHH39kBEJEsESa63bt2qFTp07o3Lkz0zLQ7Vwoubm5zGFwz549LGzwxIkTINs/FWIrJKfIcuX4fmpvobldsmQJpk2bxkIzKQFVWTEV2CuTfACBJoVQnamZQVABCQCBH9iGiAdOvWxIE61QGH7m9cjWxzPTyjgNI6P8NX2O4XfDQud/g84/gr8qsQIy3gZ90TkmKQxUwqaHM72DcBRrtJRsStyeu/nzQA5jcCIwEBrXNzyZ16dbUf4Pp2XwY3iGzEyuXwkgWLekJYBgG0CgKIDr9+MQm5CG+OR0JKakIz0zG0qFAiqVHB5uKoSW80VwgA9CgnwRXj7AKHvfzfsJmL5kC9Ma0M3cOyAUXgEhdt+ecrLSkBp/D7mZaWzC/UOrwtPXkODGulVgqEXAI/7uJbbfBFaoxkCLo0puVjoS7l0GgZz3xvZG97b1HNW1Tf0Ql8He8zHYfyEGTauXQ++WlV1Oo2HtCxGh0IoVK1ga5IsXLzIARoVu6P7+/uxmToWcBsXqfTq4n3jiCVy7do3d6omUiIBDzZo1rX20UT3iaCAtBmkP6NmrV69mEQmPeskHEEydFRkMIA2C4Bms0yCUVoAgTHh+LQIHCHRYm9rD7AUI9EGmjTe/9kMcc0jylTQI9n4QJYBQMECgdU4+Aueu3MfvB87jwJnrhYTOGs9EkJ8X+jzRkDnpZefkYtL8DUhOy4LK3RtBFWtCVsSbOT0tI+khUuLuMD+DoIpFT39LGgSFUgkv/xB7l5XFdjmZqUi4fwXh5f3wv09GFuhs6eiHU74Eyq64dOsldGkShgHtIkstMDCVDa1TyghJQIFs/pQJkVgZSdNA/yPNtpeXFwMCpHWgxEdUCDSQuYLaUCHHxaeffloPLAqbA+qboizGjx/PnCbJxE5AgUIxpSLiQRCAAIEB0iK4UypK3clWKECQUwYHQ5pojgBdU4MgnnRjkCAc2txZSwwS7AUIl27G4Pf9lzDluY4mNywJIDjqwycBBMsAISY+BQu+383CBMU+AjK5Eh4+/uyQV7h5QKFQsk2YbsYatRq52enIyUxj34XoAG5mBPI0Wrh7ByKwQlX9/lDUuVTnZiMtPhq+weEFOg8W9TmOap9w7wpyMlOYmYHMDcVRrtxLwcJN59GlSTj6tKzMQhfLaqFDPycnhx3+fF1q2ZlEZghziaCo7vvvv4958+axfZZMDURyRFkmCzJ1k/Zh9OjROHDgAGN5JGdDikog/oOy6E9gz3rRhzkaAIKcObgIzor0dyH0kdfhYY6CANlBKiN1vSWAINzMuZmgpE0M5pAr/5tBgyAGS/SzvQDh4vUHeH3BZjzTuRHGPtNWtOgkgGDPYjXXRgII+QFCWkY25q7ciaPnb+jj/L38Q+HuzX0EyHnQmkKAQZ2TDXV2BvcX0JkByPGQbudkXngUN9LsjFQk3r8M4k2oXikYbRpXQ/9OjZlJxtHl6v0UfPfnFdSPCETXx8JR3r9skjkVVW4EJo4dO8aAwV9//cW6I40DORGGhISww9/Pz4/5OyQnJzN/BjJbUAkICGB+B2PGjEFQkP3mraK+gyu2ZwChY8dO/NbMT292iLu5EXESdzYyBgjGTItsg7AAEAQfBYOvgmsBBBq7wa5lDBCE9y4KQLhwjQDCJibDId0ew8h+rXUbqgQQHPVhkACCASCQSWvngYtYuP5vkK8B8QZ4+paDl3/5Ah0HrZ0LcijMSI1HVmoiCyX0DqwA33IVrW1epurFXD/NojOEQmCBuBcoIqNaJfsdLIX+CBj8fvwe8jQaDO9UXQIGNqwe0ghQXgiic6YkUuTgaFooxLJly5aMj+GVV16xKYLChqGU+qqyWbPeZUyKwk1AcCYUfBEEdbve50BHWiI4ExYMEEg+goOiczQIpH7iY7fOSVE8Y9ROUGGZahCEesyxUedPaKuTImkQJs7nAIHKwC6NdZoEGqtlJ0Ua05TPt+DM5XsorigGmUoFP7kGydmGTa80rG4JIHCAQOBg6U//4n9/nmS/e/gEwb98FU4q5OBC4YpJ0dcQEF4DSpUj+UwdPFAndpeRHMdAkruXH8jngXwTNHn8IBrZvx2e692COXzaUsg/Ly4lC7/suwEiOxrfty5CAixnhbWl70e1LpkOiN2QOA0oTLFatWrMhEAhlY+i9svWdSCbPXuO9okOHfXtZDIyFdChK4ebG7f7MA2CnNIE8yOSmxVEUQtmNAiGaADnAQTBt68oAIFenA5k4r/goIc7DArAg/Wto1q1FyCoPLwZ2x/Zc3u2rYspw8knQRylYXimMBHOBAh0aPTtVh996/rizrVoLNp+A9oatTEyOA6fH+RJVkpLkQACBwgzlm7DPycuAzIFgivXs9qMYPc802lWeOyx3d2XtoZkjklPfIi0BM7W2KR2ZXw5fbBRBEhB75Sbp8FX26NwLToVs4c3QaCPuyTe0rYIyuB4ZbPnvKft0uVJvRrGoBngvgicfpnMCNwRkYo1AIGcFHkpHoBw/V4iPl67p8ApsiG1Uf5+rGpsXCkrJxcJyRnMqYtisRPvX2EkMQM6NcSrA4lsxXKnTgMICjeMeqEpbu+/iMP3MuHp4wm/rFRcTrEmc5PrfQIedYBA2q35a3ezxF4yhQqB4TWgcpNunSW1UsnhMun+Vahzs1A7MhSr33u+wM85RSaQj0Fschb6tYlAvSr+0s22pCZPem4+CTCA0K1bd8YlzY5zvWaA+yKQ96jKjZI4mQcIrI2FKAaLAEHEl2DgPRA/22AyMIwpPw+CWIMQdSsOby7ezgFMAUQtJbEG3L0C4B8aAYr5Trx/ldkujX0S8o/KWQDBr0Iwlg0Mxqgvo5ApwgTyytXxaoVELIvS4JuRkTjxXxb8grwQfeEG1pxKhG9YBbzcphy5okKZl4nFW68hO7QyPunuj1vxeahYyRenL8Uj2M8doQFKrPn5LK5rffBij8oIUMoR4KvAkl/OIz7TmKq0qPPxqAOEc9fuY+yHPzPfIQoRVLmXjnwBRZ13V26v0aiRFH2dmR2eaFoTH4zvyxwaTQtFhHy24Rwerx+KNnVDrNY2uPK7S2MrWxLQAwSKN6VwEUOyJg4Q6HdPTw/afyDTcrW4oEHg4IDRCzEHR/FhX6AGQRQ+6WiAQE5Z/qGRLjtLZL+NvxvFQMKgLo0xxii6wTBsZwGEChHh+OQJOV75/i4M5LiAPKIGxldIxJJLefj2pUi8tvQ0MuT+ePfZCpj7wzWMn9AW6adv4EGGBlVqhyNq03HsDaiMj1rIMH3LLcgr18TcWkmY9Vcsqjeoib7qa1gYpUVoiC9qhvmgWr0I/Lv7JG7FZjt0bh5lgECJjIbOWI3YxLQiEww5dFKkzhjVc9ydiyz508Ipz6Btk2qSVCQJlDoJMIDQvXsPNnBBi8Bv7WRi4ICAfBHc3JV6gMAOdZYFjfvaCQCB/sAiIXQ8CAVpEAyaAQNfgpHjoy7s0FDPOg2CqwMEeh9SQ8bfuQhKMtO7XT1MJp4Ek6XjLIDgExKMFcMrYNQX55EuusyLAcLXz4VjwlcXkQ1vvDWsCj75+Ro+nNwa339zAFeYKUILTZ4W2vAqmN5AjQ//uA9ZuQhMrJqEL44nI7JmVQxxv4NFKZXwQTsVPt50DUGtmyLrwjkJIFjYIsxwZRW6mfxxJApzvv6NRSuUj6hv5PhaaGOpgtMlQGGhCff+Q4Vyvti0cIxkOnC6xKUHOFoCRgCBwkF4XgWD3wDXGMjg5eXOsjiyoiMSkgCC/dORk5XOfBJkWg2e7tgQrw0y9klwFkCAXImnBjRHveS72HA2CSFVyiPs4W1sQlW9BiEfQFgfhdZ9WqJT7n1svJCKOtWD8c++a0ipULlAgLA0KwKzHpNh7YkUDO5TG6t+PCoBBAcChOlLt+Lfk1dRrlJdlohIKq4lAXJ0jr15lmkRFk8bhJYNXFez6VqSk0bjKhLQmxhYOJ9WyxilhFs7dzDkN3fSIqgoM5uIetlZAIFlWRA58HHAUnY0CCTf3JxMBhC06lx0aVkLU5/rCDcd7wT932kAgZmFFGhavwKqB6qQGJ+C/RcTkOUbiOa+WTgWq0Xvxr7YeTwWeVoV2jbwx8Hzccw7vmWjMET4ynH3bgIO30wDfPzQNkSDA9fTIPP0R/OALByLzkZAUADqK1JwIBZo1igcVb21OHcvB9FxiUjJEBs2iv4xeFRNDNm5avSYsAy5GhlCIhsVXZBW9NChXhAOXEwwMk1Z0cyoSkgFf3inp+JGqhW+KHI3NApT4uy9DFsf4zL10xMfsFwTrw/rhKE9mrvMuKSBSBKwRgJGGgQ6iIn/mr4EPgQBLFCqU3cPDz0NsXBoWzIxFBjmWIgPQkEAQa+L54EVejAjOCmWFhMDgQONOhutG0Rizpge+TjdnQkQrFkYpaXOowoQ7sQkYvD076B090JwZftT3foGBWBMj6oI8ZDh6oXbWHGE4vvNFRneH1YTH/1wGelFWBzNWlZHaMwd/HYrx2wvHj6eCFbk4m6yGnD3x5iW7vh638MiPLFkm1J4c9zti+jXqTHefqlbyQ5GerokARslkA8gUHtBiyCAA4FlUeXmxngROHmSznfAgg9CoQCBtTN2bDQ4LObXIBAPEnOgZIMygANhjKUFIJC6Me7WeWg0eWjXuCrmju1pdsokgGDdSn5UAcLxS7cx8bMNII6NcpXqWCcsM7U6d2sM+eEz2M2zLhdQDACB7vPioFjBf8b0b8Lv9H9LCdaZRlL0/+rNaqO/dxwW7I0vsI3pQE2fYW5Mhb2hM/5PVNVxt8/jmS5N8OaIrs54hNSnJAGnSSAfQCAnw1ydFsEUIJBjoru7OxQKfoBzFkXzTopOAwi6dKCmJggBINDfFUrXYnejlLN+5SuDIhgoXSwxrnVvUweThj5hZFYQz7IEEKxb848qQNhz/DJmLNsOdy9/xn1gb6laNxIz2/ti6aYonI7NZYdy5WYN0OTOf9j2MBeNmtVCx8ybWHwxFx+NbYP4OzG4mq5A1wgN3v7+Kh5rXxeNkIYH7r44fCgKyoqVMKapN/ZezUAL3wzMOyXDdy9F4sTx+zhyKQYejeugyvUo/HRHhkUjGuHirXjEwxMtAtPxzi/ReOrpBmjrkY7fzsVgzwVgZm9vvLf9Hmo1rYPhlXNwLEaLVnX8sObHM7iaE4gF42riWlQMMv2CEHj1Ihaey8HwpxsiLyYBnmHe2LTtPyQ51qplk6iz0pKQ9OAaXunfFqP6qZHmJwAAIABJREFUt7OprVRZkkBJSyAfQBAOXh7RINAjC3kaeKZH8kcoGYAgMzIrCMKjsfx3Kx7TlnIeBFcphGXIr4OIknzKhTF62rzcbHRtVQuThnaAh7tlKlYJIFg3i48SQLj9IBGn/ruDc1ejceT8TcQnp0Pp7smYE+0vMoRXCUav5hVRIScen++4g6BmDdH0dhS2EEBoXgudMm7ii4u5+GBEXSz4/iISoMSUSe2w87v9KNeoFpohGRtOPMDdNA2eG9gEl387jaMZgFIhQ15AeSx+KggTvotiQ3yiW0NEXI/Cj7dlWPpcJN787jJS5R54Z0IzrFh+EH71a2GAVxzm74sHZAGY08cbc35PwMxXG+GLr44iVa3FY61qo6/sLuYeccNHT3th1uZ78CwXiO/6emHg6vsY3q8hcm9F449zcUhSlywBWPzd/5CblYa5r/ZBtzb2m4Lsn1+ppSQB+yVgDBC4yoAd/hTNQL4IghaB8Ryw0EaBXZGHQrL6FOioS9UohDkWrEFgpAo2mhi03MQg8jsQAwR9LgbGy8CLAGKEtM4C+GE5GMjp0Si4MH+yJqF/DaUcBRFF5Wc+5OYWCgclpytj3nshF4PKw4dpDQSfg9mju5slThFPowQQrFvUZR0gEJnOldsPsXbHUfxz4opeKORoSmGycqXSYU6Kk0a0wJHNx3CnegO0efAffrmfi8da1sYTaTc4QHi+Nj5dF4VkKPHa6+3wz9r9uJCgQaWIEIx8qiZ++OEI2nWtjxMbT+NsDmco1waFYH4PP0xdfzU/QBhWGVPXXEO6zB1vTmiO1V8fhG+9WhjgE4f5e0UAYVcSPhhbHx98eRQZeUDD5jXRXxmNuUdUmNPNDe/tioFnkD/W9PfDoFV3iCkNjepXwriuoZiz7BgeZJUMSMjNzmThzFR2LBmHcv7e1i1qqZYkAReRgEWAQId/dnaWPieBABBo3OSH4O6hYnmQhdTPBQEEniGS55Pn/on8FOe/5+dBMOekCGJrtAogcOAhAASxnPVmCfKfYFTy4gPfMkAgcEAgwVIuBk4uRZuQeYAgjKFto0jMe7WXVVMvAQSrxISyDBByctV4d/kO7D11Tbee5XD39odXQAjcPHzYu+dkpqB8ZEPI5Tzzqm1Fhr69GiLt2l1keAbghaYqvP3tf1CEVsTC3j5YeSwTQ7tXxbXfDjGA8OG49ki/dQv/PFBgfBs3jF72Hzp2rImHt+LRpGM97N9+BG5Vq+GlamqsPJKKFxooMG2/GvN7+GLqev4OYg3CVxPb4uLJKziv9sXg6jkYt/o6AmpXw8wWblh7LAanLmsxq7c35my7j3a9W6Jb7l1sua3FkE4V8NU3J3FDHYjZ3dwwVwwQvo3H891Dcf5aOob1r4UvvjyIu2LCD9sEZHdtupSQr1Gemjtj7lo2Af4+UqpmuwUqNSwRCchmz5nDqJbZQc9PVT0PAjnSCakyxQCBDkQCCHKW2Ek4/Pnpb06DYAAIHMlTQihCB3LwTIzimz3/2ZyTYgkCBOYBRfYC83NkCSCcvxaNSQs2s0bdW9fGpGEUypifctVcrxJAsO7zUFYBApkT3vxiMyhagT5jfiERLHOgmEacHF7Z568IGRs9vTwQ6qeCXKtBbGImUnNY1jKElvOGl1yDpMw8qHJz8DBLizB/d2TJFAj0kCM2Lp2p+318PBHiq0RuVg7uJ2UjTyZHaJAXfFVAXEIGkvLkqOSvwN14Hj7t4+cJt+wspGhVWDK4Ej7YEQNKehgTl450SiQqVyA82BOqvFzcjlejgr8c0cm57HJQIdgLngogKTkT8aRKgAJhfnJEp+RCrlCgaqAC1+JyEBTozcaYnpqBmLQ8Sx9b6xaYHbUIHCRGXwWlx6b5oURObRtXw8Kpz9jRm9REkkDJSYADhO7dGBsiu3kbUSbLkJOj40UwAg/kCCiDuxuFPfJbM4VBlm2AoAMJZuaKgxwCO8aHv2Bi6NKiJsvgWJDPgWm3EkCw7kNRFgFCakY2Xp67HvceJjFQ4B9a1eXyi1g3O5ZrKd3csHhgOCb/cBOOJd8u6siK1p4uVTwPQwqUbh4sPwb5IZDv0eThnTC4u8SFUDQJS62LUwIFmBjy+yII1Mv8uxYe7h4MuXOAQOCC52SgYt4HQaRBsGBiELQHplEKVpsYFMb8CGJh2m1i0FkiCEJpKC+0SeH9ahhAEI/70o0Y/LjrJN4dVbjPgQQQ7Fv2ZQ0gqPM0GPfxzyDtk4dPIAIqSBz+9q2M4m9FPiEPb52DNk8NpZsngirWhFyh4kna7l1BgI87tiwaazFyqfhHLD1RkkDBEigQIHClgYyZGUhtJhx+XKVOIEDBwh6NAQJ/oJ4nwSjds+MAApkojB0WuSaDLvHmHBmFd+GDs9EHQQQQqLkpSBAAAoEbAURRvVx1nt2bgaRBsO6jW9YAApkUhs1YA61cifIRDST+fuuWgcvUIrNCWlIMAsOq67WrNLiU2NvISI6VGBVdZqakgVgjAasAAnVEmR7FAIE0CGRecCPyJIVCl+GROx6KKZr5zwJvQtkACKYgQQwQODgyOCsaO0JaMyW8jgQQrJNVaQIImTl58HQz74MigFryOzhw5jr8QyLh6VfOOiFItVxeAkLipgBfT2z74tVCo5hc/oWkAT4SEmA+CEI2R362G0iQxM6DFPIoJHLi6Z45EyL97OHhoUv3LEQpcKZFIQRSCIeU63ZBZqu31cTANBY8PkHLQitNoxWKT4NAYiKNinH4pHGYowASJIDg3M9RaQIIwz7dhw4NQ/Fs+0gE+rgZCYY+GmReeHLcEuTk5jHtAWVplEoZkQAlbrp1HjKtGr/OH4XQcn5l5MWk1yjLEuAAoQdP98zObwsAgf4vNjXI2GHN/RQYeZKKyJPMAwSzUQz2AARd0iZCF1qZIexQiHxg71AMJgZhQQggwVSDwMZh5Oxp+xKSNAjWyaw0AYS+7/3NXooIhAY+HoEnm4QjNICHvtFnLyE5HX0mf81+D632WJGiE6yTnlSrOCVARGk5mcn46aOXUSUsqDgfLT3LgRIgE3NycjJSUlKgUCjg6emJoKAgq82BGRkZSEtLA5ERkone19cXXl6umY1Vn82RHWj8ZMt3uAm3YNIg0Jfgg8BIlgXyJHd3nd8B68RIg1BWAYKgSeBrLz9RkoFEyfLqFPt2iGtJAMG6T7QpQJj5/WnEJrumX3x0QqbRS7kp5Xi1dy0GFAggZGTl4MlxS1mdkKqNy1zkgnUzWnZrCX4I6z54ETUqly+7L1oG34wux3fv3sWXX36Jb7/9FomJiUZvGR4ejiFDhuCNN95A+fLlGVeQUARAsWHDBqxevRqHDx/O58fWrFkzjBo1CoMGDUJAQICRmbokxSmbM+c9bVfGg2AgFzK9/Yr/J/gi8OoCiyDdihTMH4Gb380DBBnz9CcAYruJgWsnOPWzq2gQhInjpob8AIHjLYOMjOvz9+A+GvkJFiSAYN3HwhQgZOWooSWaTDOsl9b1aFxLnASIa9iErsWpiKzr+dmP9+orNqsRhNE9aiEsyJOvax0td7+pKxGblIagSnXg5iEx71kn2dJRK/nhLWSmxGHtvBGoFRFSOgZdxkZ58uRJHDp0CDdu3EB8fDzoYK9SpQp69OiBiIgIs2975MgRvPDCC7h+/bqeXZgqkvaALsziQsCgVq1aIDBQt25dkLaA+j516hTTGogLfe4FM7Xwd9IkNGjQAD/88AOqV69e4tKXzZ7NfRDY3meiPchPYMRt72p1Lhs4RTEIbSi8UaVSQqkkJ6z8AIGHP5ZNgECyMJ1oYWZNwRavZ3yASQDB/s9BaTIxPD1vD9rVLY+nWldGrYp++pBgBhV1eGP7/vP48Ns/4OkXDP8Q8xuW/dIqnpZhEZXwYYtcjNoQAzWUGDWqDfwOHcGC8zmAwgvTXqiFRavP4PEu9dDEIwfxuXKoou/gm7OUJ7Lkijo3m+1pYjIqR44mjmiX1dn45bORCAv2d2TXUl8WJEC+cz/99BPWrl3LDum4OPPpzGmfJrDQsmVLjBkzBt27d2eH/zvvvIOlS5eyg75hw4Z4/fXXQbf9yMhI+Pv7s32fTA3Xrl3D0aNHmYbhwoUL8PPzQ9euXbFr1y4GDEJDQ/Hyyy+jS5cuqF27NsqVK8d89yhzckJCAqKiorBv3z72LBojtZ8+fTrefvvtEp1bmwECCZKErtFqIBf5KzCmRZkM7u7ki0DhfgYnRQM/QtkECAISNAcSxCDLMNMSQHDUqi9NAOG/u8moXcn8wSAAhJT0LAx8axXSMrIREFYdHt4BjhJVsfWj8vHBqgl1MXXBMSR4lsOnL1ZHhfRYvLLqBpSVK2JmSxWmb7qDBa81xfJVx3E5vWRyJZgKJO7OJaizM+EdEMIAGhEdOaoQ6+XDG2fg7qbE9sWvwtfLcX07aoxlqR863P/55x+MHTsWV69eZWdT1apV2a2+Tp06DAzQAU9ahNu3b+PSpUvsKzo6monhiSeeQLt27fDJJ58gMDAQs2fPxoQJE6wS0YwZM/Dxxx8zMwL5540fPx5z5sxhh35hhTT08+bNw5IlSxjwIIAwd+5cI5NFYX048v82AQSxRz4xLBprEHjyJtIgkJrFfoBgCIs0voW7rolBkIs4skE89vw/Fy9AULi5wUubi9Rcrr3w9XNHTlo2sjUsIQUCfN2QkpoN+tW0dOtaD8n7L+KIsflcX02ukMPfyw1KmRYp6TnIhjuG96iE9Tt4ch5nl9IEEAqShdjK9OfhKMz95ndotDIEVaoNlbtrOjBZfh8Fnh/7OM7+chAp4VUwMDAVAa1qYenSA4hoUReNkm5ixdlMtHiyEUZUzsN3O6/i7IMssOVZQoVIjpJibiAnMxVaTR77XPgFV2GhpvZGIolfJS3xAdLi76FhjYpY8e4wBxnASkhYxfxYupAKTn3kC0AHr973zcODOQmSal6YJ6pDh+r777/P6tHN/7PPPmM3+oIK9Uuq/ZkzZzLQQPs53fL//fdfplmwtpCWYfHixcxxkbQC9erZnm314MGDTIuRnp6OTZs24emnn7b28Q6tVyBAoCeJHRfFoXsarRp5al0uBSH2X5eLgVCTUqnLp6DLrWBsYhBomY0zLnJ1PLXLn4vBUT4IpOFn4EVnUjFIs4BkTSZESaYzwBcmP3xNQYLp5sJ/L16A4F2xGmbWScY7f8UD7t74fGoLnPjxML6/kQWlfwCWvRiByUvPcC58k9KzR0Ok7juH/enm112/Po+hSnIMTqYpEZmdiHWX0uDvrUJyWg6qt6yHBkm3sOWyhcYOWMplESCQWFZsOoDV246wTc/LPxQ+5cIdclA5QORWdeFXvz6GKW7jbqUqSD14ERmPt4bPsZOo0bEW9m86h0ssh5GM5XLo3bk2WqliMO3X++D5Y0uu0E0/PTEG6UkP2CAYI2Kl2uwyVJQSd/sCkJeDbYvHItBX8i2xRpaktieV/a+//sqiBkgdTzdswbGb5QRyd2cAoVKlSpg8eTIGDx7MbvorV65kj9ixYwcDBnQmWVsouqBRo0a4cuUKO5z79etnbVNW76uvvmI3/4sXL6JixYo2tRVX/uuvv/Dkk0+ysdNYLPlI2P0AKxraDRBkci1yc/iJwhzxROmeaeLc3JSGg15PwWzexCD0wb87DyAkpWZh/c5TmDC4nX7cBhkVFSAYnBTFTIvmbh88f4Uhk6SzfRAUKg8sGVkN7359EXkVQrCwcxAy0lPw+qb7qFirCiZUTcO0XQlQeHujT6uKCHfXYN/RmzgbrwYBBNmlOwhvGIaE29HYejZJtInL8fqIx/D7TydwWR844IYeHcPwx4FETHu5EcJzUnE06j7WHYpFuYrl0bdxOcjT07Bl/13EmwEkVqxZoyplFSDQJrhxzxks+uEf5Gk0TN1Nh5Wbpx/L6KhQWr/h2SpTR9SXKb2xYEAoovPc8NWvUVCXr4Q3G8iQ66/EZ5tvQDz1qoAArHqpKsYtPoU0B6wJR4w/Nysd5FSozslkcg8Mr2m3zJMf3kRmSjya1qmEZe8MdcTwymwfpC1Yv349li1bhuPHj+u9/ek2Ts575FBI2gICC6mpqTh//jyz/wvOgnT20P5LNv89e/Ywk4KthdqT9oH8B+iQJi2CrYX8CmjMRSm0B5CJZMWKFUwjMmvWrKJ0Z1db8wCB8SDpiIf4qW3kjc8BAaVA5v4IpgCBmqhUZGogfwRxjoaCfRCcCRDux6Zg2pIdqBpeDh+M0/E+WJvu2SoNgnEUgwASXAEgkA/IhJEtcWzrcaRVrIomCbfQpG8DLF1xElXbN4TbyfPYlQCMGdIYiVH3cDVbhdE9KmDespNo1Lkp2sjj8c3hWPTs1QAxB85g83VDGGGdehEY0SoIp87dwx9n45CU645pY+ri0+Wn0b5nUzRIvoVfziayv388JBJbDkXDLSQYAyumY+LP98DdXe0vZRUgCBK5fPshRr3/I6PtFhdypKODS6F0A6Uj9ytfpci3XPtnwUxLmQxvjWoD71u38O6ueywnwefjW+P8gfNYeTyRHbZjelZHRkYuy/CYefsWvjuRymKBXKXwxEvEXZAKN09fBhJsNTdkpSUy00U5fy+smDkMFUNKn09Jcc0HORGSg+CxY8eYaaBFixYsAqB3795o3ry5RdkTUPjjjz+wdetW9v3Bgwfs1k2qfjIXkK9BaS23bt1CjRo12DkrhEI+9dRTCAsLK5ZXsgAQOI0ytMbcCGITA2NFlCnYwAnpiDUINHIKd3RzI24EQhtCEqeSAQixiWmYsmgb4pMz0KxOJXwwricTrvGH3XEaBGHmLEU2CPTTQj1naxDoOTXbNUb7jNtIqlwF+7adRevBrZB5+ALqtKmKFT+eRY7MEwsnNYdHdq5uk1Zj4doTqP14A72JoXLTenjG5yEW7TX2BJbJFWjToT6eC0rAxI3xmMIAwknU7/gYHou/hnXnUuBdsSqWDwlDciYdAVrGS//uD9eRVUS7c1kGCBqNlpka1u44yg5U76CKyEqJQ56a1KwaZisX1lhIZCPIXVyrUCw7moMfQvKNvxsFdXYGvAJC4RdcyconaJGZmojkmBvMpPnxxH54omkNK9s+WtXo9v/zzz/jxRdfZOcJaQq++OILdOrUyWZB0MWMbtqk5ieugt27d7PIgdJaCPxQ1ANpJGgtkomFyrp16/DMM8/Ypd2wRRYMIHTrbrhRMz+AQjUIXKtAUQxUyCnEFCAoFDIo6JZDhBHUn5YneOIUy+Z5EPih7VgTQ3pmDsZ9shGxSdwOXpwAgZ5nHiQYfBC434XzeRBkXsF4t3cFZLrl4dP1l+BVsybGN/CAB5Ixd9NtiurF+6MaYMV3Z3BbDSg8VJBl5aJrz8ZwP3kOm2M0aN2tCerHXsOqU6lm1pgSi0fVwMxvbmGsDiDU6/AYWiRdw5ozKXD3C8OCbnJM2nCPmSh8vRRIzSi6PrksA4Qj529iysKNzLslOKIBlDrqZbamGNW34b7trNA8WzaTslo3LzcHsbfPswtF+YhG+gy2Bb1vSuxdZCTHMEPi7DG90b1tPR2HS1mVkv3vtXz5cowbN47tleRMOHHiRMapU5Ty8OFDBjIoIkCcG6cofZZEW5IJ+V8IZEsUIUFhm1Q6dOiAv//+22atli3vYSdAYIkY9ACBXkKTl8c2MoU+0yM3S5CZgTzdyWTBDkIGLIoHIKSkZ2Py51vxID4VSpUH1LlZaFancrGYGMSTkB8kFD9AIJT2+ktt4HnzP3y8J47Fo388oTnO7zqGdZd4iEKdBhEY2qwctLm5iL4XgzV7H6JDl3oIzc5FZIQ3tCnJWL7zJmJzdIBG5o5hT9VETR8lW8B791/Bv3eBqSPrYMHKU/AKC8e7fcJx4/IdrNgbi15d66JNmBuyMnNw9uQ1bLuaxdZMUUpZBgjTFm/G/tPXERhWg/kdSKXkJJAWfx9pidHwDgyDb7lwiwOhpEypcXeRm50OP28PfDjhKTSrW8Wpm3jJSaXoTyZnQgIHRDpEJgJyKLTVjFP0UZSeHmifJb6FV155hTlBUnQFRUoUFVBZkoDdAMGUSZEAgoZMDWRSYN85WRILfVQpGUDgvxNGcD5AiI4jn4PfkJCSAQ+fQHj5l0fCvctMDnUjdSxmBj9BkdNgQUeWUQMTmQoESNYuNqEvLTo2q46BXZoYNZSYFK2TY1kFCImpGegzaTlkchXKR1LaZ0OGUOskI9VypARyszMRf+ciO7xCqjUxmg/S5ORkpCIjJQ7Z6UnssY1rVcTU57ugVkSoI4dRpvoiQqDGjRsjKSmJERmRylwq1kkgNjYWAwcOxN69e1nkxvfff29TpIZ1TwFsAwgKGfdLYCYIcRpn7quQI5gaGA0l1yBQTUKHTJOg2+OcDRAeJqThzS+2M58Ddy9/RjhDNsSE+1eslUvx1NOpift3aojxz7aXAIIdUi+rAOFU1F289un/mCNicBXb46jtEKXUpEAJaBFz7TQz69B8yORKaPJykZkaz+iTiUeB9rvgAG+M7N8OT3dsZLa35TuiUCHIE+3qhaKcn7sRm+ajNAGkVe3Vqxd27tyJl156ieU3kIptEiBSp/r16zNfC3LOLIznwbbeeW2rAIJMd7IbpTDWmRgEKmHyQVCTmUHD7aJigMAJlJRQkKnBggZBiG0tqg9CRk4OXvtkE+KS0uHm4YPAirX0KithbPYIyhltsjOSkfTgOgggvDbocT4husgKSYNgncTLKkDYeegS5q78He4+gQisUM06YUi1nCoBclak8EeuzTGke6eHhpf3x/SXu6NJ7UpQMbp58yVPo0V0Yga+2h6F5PRcTOpXDzXCC2fYc+qLlUDnRABEHAF0LlASJHtCCUtg2C73SDIvkC8COXRSSKaji3mAIErcRA8UgEFhAIGU7Hm6qAZTgEAHH4WesKAGExOD8FJFJUoietrJi7jPgbt3AAIqVHNpe1ZWejKSoq8aAQQBJEgAwbqlXlYBwtkr9zD2o58lDYJ1y6BYaglrjR4WWs4XTetURrsm1VnipYrlA9gFyNpCfqYPEjNx4moc9l+IYRTc/VpXQaCvu7VdlOp6GzduZCYFIjUi1kGp2CcBinIgzgcid6JkUpQjwpHFLEAgbYCQvMlagCAwLpL/QV6eWudvIIQOcmZE8kGghE7OAAjRcel4a+kOkO2WfA78Q6u6NDgguVoCCPS/qYu24Mzl+wip1hhyuSF1qCMnvyz0VVYBQlZ2LvpOWYGMbDXKRzZ0LY6DsrBw7HgHYkNU52Rh0RsD0bpRVTt6MN+EwlkP/xeLAxdiGMh4vH4omlQLAqUDL6uFuA1+++03bNmyBRTXLxX7JUD8CJSlklgjyWzjyGJeg8CvsbpUxMZMiYJJgVRsQi4GSkUn1xErcSarPPYlUCYbvoPlalAoVBQCATk4VbNQCtYgcG4GoTpl9KXYCD5UGQ6cvY1P1+5hjpJ+IRHw8gt2pJyc0pcEEIou1rIKEEgyi3/6Fz/9cQLeARXgG0ye8wU5yRZdllIPliXAQh1vnWOXnF3LJsDXyzk3/YwsNb7fcw2X7ybjycfC0aJWMMr5eZS5mafY/suXL+Pw4cNo1aqV6yw9bRqu3EpHzcjS41xK/BFr1qzB6tWrMWLECIfK0m6AwH0JhHwLGshhSP1MI9RoiEBJyLXA6+nYmKFSuTEmJfJ5dBRAILhAN+53V+4CIfLSABIkgFD0tVyWAcKdmEQMnv4dE1JAWA14SKGORV8wdvZAEQopD28xk8KCKQPs7MX6ZrSHXX+Qhi+2nIe7SoGp/RsgrFxpS9pl+X3J3EykSBSqZw8d8rW/5uGxgd/ij9Pn0DrCR/cgLV5sXxOxraZjx/xXrBe2uGbefvQeeRTbv5tSakAZ+SBQNMO2bdvQp08f+97bQiu7AYKxBiE/QCBfA1oAAmugGCCQ5kFJ/ggOBgj0jvvOXMeCdf8yGmjf8pVdWpMgAYSir+WyDBBIOofP3cSbX2xi69knKBzegaXnZlP02XWNHkgbGnfrPMtYuu6Dl1AlLLDYBkbO2/cTMnHo0kMcuxyHxlWDMPDxSLipSp/5gdIuU7QCkfscOXKEyZDyHXTr1s1meV7aNBGv70hCULVn8dM7/FDMOb8Iz3/wOxJ9euCPlZNt7pM1KGUAISMjAxUqVGB5KaKiohjroiNLgQBBuN2z1JrklaDTGPC/c5U/p1LODxDISZFIHfLyKPzHWINAPghEnkTevrZpEITQSRZtaWRiYHSNBEcUwF9Hr2DxT/uRp4FOk1CO2Q5T4+44UnZF7isvL5flnx/QqSHG6aIYhE4lHwTrxFvWAQKZzLbtPYclP+9FRlYO3Lz84BMUBjcPyggomRysWyVFqyWssY7Na+KjCU+XmG9TVk4eDkfFMrDg66lCu/ohaFwtyOVDJSkT4UcffcRSKVOSJSre3t4slTE5KJKjoq2FAMJ7Ga8jdtlULPp9Exp6peKddnXQYcpoLNztj10rJ+HhgeWYuuwAZPI8ZLlVxZpV/2fvPMCbqto4/k+T7r3pAgq0zLL33giICCIgCjhRcILiQAXFiZ+iggoooIDiBEFBkCl771G6aCmle+8263vec3Mz2qQZTduU3sPTJ6W589xxfucd//dDXPlgKBadb4VWnuU4eykH4wZHICM/C4l5fvjzz6/hrjiK/r2XoGffSGSnJsBr5GKseHYgbvz7Ld754TBcJQqUunXFV1++itQfZuJ/F0VwKHXHi//7EKeXPoYTxV5QePXBV58/jfrITSGJ6hkzZrBKj1S0ytoiUyZZEBgg2JG8q8rrX7V4kx3FIOi6GAgQGJDJFVquBi60gQUpUsCi2I5pJPDNeAyCaYBAgo2Hzifg058Oq9wNLSFxcERuSgzblb3e4B+NcJHhm9WaQkmavdw/tBOeeWCAjiyzAAimvTLudkDge+FsdDI+3bQfyel57E+kj+DqFQiJowvEJGfOu/v4g/kiAAAgAElEQVSUSsikFZDLpKgsLYS7X6jVXxqmXZn6X4o0CqhcM8lOW0NYisncZiShvDiXFVn68f3ZcHaqnQSwtXolM78Mvx5OREp2Kcb2CkVUS2/42mAGxN69e1m5ZJrpBgcHY9KkSXj88cfh6+uLOXPmYNGiRSxNz9zGAKFsMe47OQPnu32ANwcWot1jp3HjCxdMX6PAv6sewfRmIQh74UOEetrj/LaNuHfbOYR9OQibfN/B188Ow+554Tg95QAWD2+F1XNGI/TzvbjX6SiGTNyFf3d8AElRKtq2mYKd8XvwxcS+CLrvKXiJgN1rv8LUDZfR5eRMfBm4HBseaA5Ib+HJwQ/i0dU/oXv7VnBxqF15cFP6g4CAylJT39LYSSDWunVrU1Y1eRmTAIHLQKC8X67oUjVdBD2AwKUz0oBqpy7Fyccg8IBAQYrki+Kpx5qAQD1wIfYOFq/ewwIXnT38UVaY1SBSy9WvhkZqmb6rWouBXkwCIJh2DzcVQOB7Y8eRq/h4w14GvqY0n5BIVomwKbSyolxWHMnNOwhuNcghm9IX5FbISYmBvLIMTo72+O2TJxDgbZv9ePVWHj75/QpaBblj/v0d4elqGxBDIkhjx3KF8UgaeM2aNToTQlOug6FleEDYPOQQBj2+H2/0SsSdp7bjiZxVGL9Kgd1fTEYPn3bYmFyEToGaLLCTSwdhd8RKvPNQF5x+pydipuzAzE5B2PTKJDi/+SemeGhiEFCeg56t+uO7S/vw/qTH8P2RffDUmiOeXzUD/w37FgvacTEQ8vJ8bPrgabz2lxsunl2HoDqsyF5WVsbcCbdv32aVHUk0ieCL0ket2UxyMfCAwBn1TQMEbR0EClakil06gMCElkhQibIaONqyNiDQK5S07P+36RBIoIRaQ9RiEADBmres7raaGiDQ2VdUypCYmgOyKpy8koiLMXcYBGs3qrDpFRgOe2e3JpMiyQsZeQa2hLO7r0U3HcF5aUEmSvIymFJioI87vnz1QbQMtmx7Fh2EBSvR++1OTimOXk3HsegsjOoWhLE9Q1mAY0M0KuAXGhoKKpq0du1aBgjWbDwg/DLDE0um9sJP8SG4dnYHxBdXMED499t5+G12e/wS8BJenhyF/3b8g7kf/A+x7xkHhK5hT+CBD1egr+gQnvjNH9f/fhEbnx+Ff12n4s0pHbDtu+2Y/uWnkG3QAIIy5zKWrLuEB++JxNyp8/HJsWPo71s3LkCq6NiuXTskJiYy9URKFSXJatJBoEJOJMFsrWYEEOjm4iREyYIgAnezkcuBXkfM9aCqRkhJi1whJq5TNIDAhn424yEToD4lRQIEzbb0V3PkgiINpzlqxyBULY64j2ISfqWYBCW6RYbgo+e4XFFdf01tyz1Xr8XAq0OaCwi0vCCUZNot3hQBQZcEuJRkik8oLZeioLgMLy/fiszcIiYzTtk8VCr6bm/kWshMvMRO0803BC7uvmaVv6ZYoPLSAiabLJdWsKJz9w/rjOemD4WzY+Pqv7JKOY5cTceFhFy4OUkwrEsQ2oV51muswnPPPYevv/6aFWKiT2u3nLj9OC7vjwntnJF07l8cygzD7LEdoMg8hz/OKzD1nl6AvBDbf/oJsZmVaN9vFO4d0AFpx39CgvcoDGwfgPTjG5AT+QA6+rnh2sE/Yd9/EiLt72D3wSSIMi7jSo4THnrsEYS42UNalIbtf2xBfLYMXYfeh9G9WiHz4t9IaX4PevrYA/Ji/LflFxyLz0W3e6ZhbPcWdRohROmMNOkm+CIVSopFmD59OiveRKmj1opF0AUEetewgEReB4GrwMgNzAqDgMAHKdYECOQTJAElLrixerEmDSToAwQ6IF53gbvVagpS1FM9GfvPxOOLX46gW2RoHVVz1AUEvoKj/gtVs4tBAATTXyfagNC3c0tE3y5gkd5We0Ao9EY1EWD3FSNc+oWfsVsnmlzfPWtSL7BbSXemQoqiT3/wMxLv5EAscWApkvaOziZtztyFKN6BYh2oGFpDtvLiPCZbrm4iEZNad3D2gL2TMxMb4+MSlCSTTAHUskrIKktRXpzPoIAaBU53jgjBM1MGIioipCFPySr7TskuwY8HElAhU2B452aIaukDL7e6dUFQ8SVvb282blAao7Uj663SMY18IwQH2vF7NN6EhYWxeASy2pCEtTVaNUCgl40me4F2wlkQKEiRAhGpcZkLquVEZFngYhOMAQK9VAkSDBVr4uIROEDgGIUXQuJexpwwk2WAQGtdiE3DX4euYekzY3S2z23ROhaEqqWdBUCwxm1qeBtVLQhLf76MnhG+GNcz1Co7poG7sQECnbhSKcIrn2/FicvcoOnqE8R889YCJ24fSmQmXoZSKYd/i04MRhqiUUBmVtIVBm3zHxmOg6djcTUhlVktq7pe9B0fiR85OUgwpn8HPDNlMDzdnBriNOp8n0evZ2D1zhj2fDwxOhJuzvS+tf5uKZ0xIiKCgQGl3gmtfnrgmWeeYXEe165dQ4cO1inwpgMIlG7ALAhs8OcHaVVsgBYgcMuoBnAGCGK9gKAZ5DVpjuRmIHcplXTihZK0gxTt7R1V+9dkFfA3MQECjeMsybKGNEdDszGRSIKUzHw0b+ZpVUCo6fILgFC3D0dVQJArFPj5UBLKKhR46p6IWu+8sQICudwqpXJsPXABK34+yAG22B7Onn5WBYWS/EyWPkwxD35hHSAmEbR6bAQpealxqCwrwriBHbHoiTFsAlNYXIb8ojIkpuUg/lYWktNzkZNfAplCwawEQX6eaNcyAG2aB8DX05UFIDo6WGfWVY+nb/auZHIF01XYc/4OriblYXyvUKbYaE1wpAGqU6dOGDp0KA4e5O49odV9D7z77rt455138Ndff2HChAlW2aEaEDTVFDnLgLasMW9BIBBg82wdQKABuyYLAj8z1ygpUsFHhVKhFkrSBgSxmKo+kjmQBwTOgsFecCpA4J072lLLNcUg8D3F1zTgswasFYMgAIJV7kWLNqIvBoEA9O/TqbiZXoS549rCsRaiMo0ZEPgOTUrNweZdZ/DvieuQyuQsDZD0FJxcvODo6sEGd3MbRflLy4pBFUlLC7LZ7J0VSKMaKHxdd3M3aubyLA0x8xbKi3IQHuKLH99/lEkh842ebwW5JmvwBvOOojqYSJt5NvW/eF5xBU5EZ+FCQg6Tcx7VLRitg2qfqUHBc61atWLR9RRlr20Kr/+zbDp7/PTTT7Fw4UKsXr0aTz/9tFVOnAHCqNGcyZ13ExgCBKaDwAIWtS0IhgGBO0IeNjSAQDnbcoWMuXK5fWlqKpD7gfwnfOVI3sUhAIJVrvddt5GaghSPXM3AmbgcZkkgYRlL2t0ACPx5x97KwLdbj+JGYgZyC0u4p5NKsTu6MOEliaMrJGQBULsPWc4SEzxTsvoqMuarrygpYDN2vjk72UMiFqOopJz5/SmLQGxfN7UK+H1SUCJde2l5MZr5euCLhVPQIshH5xILgGD6HR+TUoCtx2+xFYZ3CULH5l7MBVG1EVR4u9V8bamyoJ+fHxNCOnr0KAYMGGD6gTSxJenZopoUbdq0qXXcwIsvvsiEp06fPo1evXpZpSfVgMAGau6NYdCCYA4gaHQQqgICxTOQLqMSChmlPlYHBIIDok4OHAQLglDN0fC9biyLIfZOIdbticO7D3eFkwXiJXcTIPC9SBaW45cTsOaPI6B6D2R2JkEzUxvN0h0kYjTz88D9w7pg8vCubOY+443vmZATWSR8giNg7+hSLYDS1H0YXk6JitJi5KfFsRgISkNc/+5M+HhUr1MgAIL5vU2ZXuR+2LAvHvf0CGGyzq5OnEU3ObMYH/56GSvn9jUgNqfZ35dffon58+ezNDyq2ihYEfRfi+zsbJYOSmmLVEuBAg0tbSNGjGBARmBW50GK2gO3tmWBm8kbtyAwKyODDj2AoIpfIHqipuve4IIUOUigjWgqPgouBktvnbt3PWOAQGd+K7MEK/+OxpIZXcy2JNyNgKABBSUKS8pBWQ9Z+YW4EH0b126mM0tASVkFissqUSmVsRl6WDNvNG/mg5bBPohoHgBvDxdW0VDbTVdWIcXXvx7Clv0X2S7EDk7w9G8BB2e+mE7t7kNpRRkKs5IhLSfrhxK9O7XEe/PuhYer/qBCARAs72+pTMF0Ff4+lYyYlEI8PKwVjkdnYv/FNESEeGD5U70h1nLnVN0TvdOpCBPNjh988EGWhie06j1w4sQJ3HPPPSgsLISbmxsWLFiAJUuWaFnQTes1yhYhLYTmzZszRUWNBd609Q0tZTCLoe4AQdetQDeSdkogn8XA719bT6EpAgL5da0ZQFS728X21q4sK2aCNh88OwFDepDMKJ9uqutVTssrwxfbovHUmDZoE2y6SvrdDAi6V1NjqavNVaasgeMXb2LttuOIScpgm5I4OjNNBmd3H0gcaDA33eNPNVTKS/JRUZwHaUUp2x6JFs19cBAGdWtTYxS+AAi1uZKadbMKynHyRiZW7eSk6qn1bx+AVx+MgoNe2XpuGRqoaPAjAZ++ffviww8/ZNLAJLNc/02O46tfh/2Et9ArxBPKklQsfWclnlm8FIHu9qjMisXSr0/ircWzkHr2H2zYcgB2zTri+Xmz4ONofoyOOedHqYkrV65kAYZUq2LWrFlYtWoVnJ1NT02eOnUqfv/9d7z55pt4//33zdl9jcvWGhD++Wcn7qSkWO2AmsKGMjIyMG/ec2o/UVWpZeqDD9fvxf4zcXdfd4hEcHTzRUURBbZZpznYi/HNG9NYVLohQKA9VUjlWLr5Mib1b85SvUxpAiCY0kv6l/nzwEWQNHRschZkMjlbyE5iDwcndxbzQL+zCYEqbZq0CVisg1yKyvISpq9AsQbUSLgookUARvSKxIOjuuvNOODKy2uORQAEy69d1TUPXUnHst8plVTTpg5qiVkj2ugEhlZdj9IcZ86cibNnz7KvaJZM1Rv79OnDUvEcHBwsquZo/pkpkbh+EhbLF2HTU72ReXE7wgfOxldHruOxbsG4sWcFJv4YiGvrumLUiNewaPl7sE85D/fBU9DDhwqj1X07c+YMJk6cyGSTX3nlFXzyyScmTQ6pIiaVeQ4MDER0dDTc3WsfaMqfba0BYfXqVVj1zTd133t30R4oiOTWrWSMHcsrOurX1c/KK2b+YS7Qs/oyOpYFytdXi/dU7yxallJDVZEmVeZwnDJmzJ0itAvRvbk0++XXNHwhdPQCDC0mEmHFzni8MK56URF2fEpThYc0wlQebo5wY+Zu2ql+C4L24bz382UM6BCA4V2aGb2rBEAw2kVGF8gvKsWaP47iv3NxIDeEVCo3qk9A96ujvYSBQM+OzfHC9KEI8Kn5xfftrli0DfVAv/YBbGYrAILRS2PSAqQnMffr4ygokTK3go+7IwK9ndHM2xnjeoUi2Kd6/Ae/YbIOf/bZZyy6nuCAGtURIKEfagQIfIVHkw6mFgvJSk6h3cSduLR3KS5uWoANJQG4mdYLe5eOwO9vTkLitN/xWrtz6D34K/yyew3CvVzMsHXV4sC0Vs3JyWEBiyQ29dtvvzH3TE2NUkq7devG+pNklo0tb+5R6gQp0sq8ad+Yi4HUEym9cc3q1Vi1SgAEczreVEDQbJNTtKza9Lkeqgo1qUlQBQjsGqs2pVnfjikQJqYXsQdeu+lPCdV/ttwAb7wnvvzrBl68r52BBc0FBIpR4TZlKiCQf3XzoUS2/MxhrWs2UzdSoSQ+7df41eCXsI6Loab9UYplUWkFi3uISUwHAXB2fjGy8otRUSlnAYcU+EifkS0C4OnmzMCPdAtMaZVSBc7FZ2PzoZu4r09zjO4eIqQ5mtJxJixDpabJ3SvRkrs3YTUWNDds2DDmRr58+TKb5ebl5bHfjxw5wnzlBBD10ZTySoyO6ou39p3C2cXjcd/nG3HfgNew99yneG/CdCzbtR9eIiVi/tuIOc+9A0XUTOzY8A48HUx9J1nnLKgCJllZyB1z6RInH66v7dq1iwEBBSW+/fbbIB0Ea7ujBUCwzjU1ayt1CQh0IPoggbcgaAMCN6iKWJXORRsv4Ll72yLEV3c2UBeAsOnATcwYGm4gyMnUh5G3FJgPCHTeMrkSf5++jcz8cjw+qo3BqGzBgmDWrW0TCxeXS3H4SgaOXc/EiG5BGBoVZDCgrinrINTHxXryySexbt06fPHFF6A0vIZtSmye0w9Jg57DpU278cvudXiuXxcMWvgy1m++hT1bNb57WXke/lr5LFbKn8OB1/vXuyWBSmATQFEQI7ljtFtRURFee+01/PDDD6CiWBRzQBkjZI2xdtPRQahqPeBpRF8Wg2BBsPxS1DUg8EemDQqGAIGWLS5XYPm2aCx5qHO1k6oLQDh4OQPBvs5oG6IvWLB+AIGBFIAdp2/jdlYpHh3ZGi6O1ZX0BECw/D5v6DUpZe+ngzdxO7sEY3uEonub6jU6BECo26tEgkkUoZ+VlWX12a0lR1565hOMnfcTXPu9jn9WTMfF5fdh7o9J6DL3R6x+qgsUGRdxKs0FrZq54sL2d7Gm8mn8+XwPS3ZVq3UIqGjQpwJMP//8M3PDkDVh//79+Oijj0CQQNaYt956C88++2yd9S0XgzB6DOe5VWsg8FoI2gJG2jUaqBYDmSTtsGaV4GIw906oL0DQtibUBAhHrmUzf2KkngG7LgDh6q185tJ4cGALdddp3BP1Bwj8zk/GZOOfMylYNDWqmlaCAAjm3t22szwfgyCTKfH93jhcv5WPlyd3RIifq9qiIABC3V0vmqBQpcHWrVuzok020ZTZmDVkOPp8fATP9veEMncvhgz7BB8e2IOBviIoC67gucdexL7rmeh9//P49v05cJaYnnVjrXOkoE4SOyLBKaqx8M033yA3N5dt3tHRkWWHfP/996woVl22GgGBdqw3JoFFHQuAYOmFqU9A0D5GfUGEFID00nfn8clj3dWDo7Yfqy4AgfKrV/0Ti/dndrUJQKCDSEgrwrI/ruHzp3oyYRi+CYBg6V3e8OtpBykSCBSXSvHbkURc0wIFARDq7joRINBgRoWbKJhOaKb3AFVkJKlqXiuI1mzWrBlzLUybNo1ZD6yldVDTURkFBF35Zb4mggAIpl/q6ks2BCDwL0syFWnzcMydQuw5n47nJ+gGDfKQUBeAUFohw9xvTmP9i/00Mzl1gGP9WxD4K5SaU4rPt0Vj7vhItGrGRcwLgFCbO71h1zWUxUAlkHedvYO03FI8OioCYf6u9e5jbtieqb+9k0JgamoqSDGwLnzk9Xcm9bsnvp6Fl5cXk0+m4lf0QxWP67MZBQRNcSaNu4Er91wHFgR5Avrd9zUO7lwOklNRJK7CxNV++OlxX8x8ZTnklXdwIlqBfp3DEN7nccz3/go9l6Zg/cEzuL8jV6FRWXwZY3sOh2z0V9i3Yio2zO6JvGm/4KVxkbr9qizGuwNDccC1H5yVlQjqNRWrP3wadasgzx1CQwECsyDQlIkSxlXtp/+SmKSqr7v+M+fr7pgSHWtqFgPt+oU1Z/DRo93g6ijRLaeMhgMEOq6iMimW/3kd9/cLQ5dwHwEQ6vNtZOV9GUtzvJ1Vgh8PJMDXwxH39AxFc//6yXe38mna9OYon5+yFJ577jmQ/HJ9zHptukNMPDgK7KQAzzFjxmD37t0mrmX9xdSAwOd6MZcCjf+qF7VufQYuDoFJLdtR/helOa6yXpqjPBY97/kKR/auAGlIyRNWYNxXAfj38+nc4J//Ewa9Uo7Da58AZe5f/7A3Vt7xQYbbDGxdNpstc/SD+7DyPJDufT8OrX0U62Z0Rd5Dv+GVKjNkKAvwWp+2eOTveEQFSvDKyN7oufkSHvQoQmpaFsoVdvBtFgYfVwmUsjKkpqSiuIITbfEPC4ePsx2y01KRW1wBd98gNPN1g1JWjpTk25DauSA0LBiOVM9aT2tQQOBnxUolKmUKfPJHNN6aHmXwziILgnbKa023oDmAsHpXLKYObAlvD03kLZci2bCAQEdA2hPv/3oFE3qHokdrX7XJhR0fq3POKEvVFaYeb80PrynpoXq3wAhe331m7nHVfZqj9V9fRvrUxGqOBAort19HuzBPTB7QEl5uDoJFwUoXi4R7evTowYLs9u3bx0pAmzLZsNLuG+1mSPho586d2LZtGxNPaqhmFiDw9Ke2IEBsdUDoPuhNfPbpfDaTV9z5HUuO98H+GgBha8/PcPGjZVi2bydaiaQY3msqXprfBcv/a246IAQAzw0dhHt3nEHuwntxo/2DCCu5hBX/SnDu4HL8u2QKVqV1wv0R+XhpbQbOnVyLkj2f4IUtZVgwtSO+em8FXt16FO77nsM3xSMwWn4UviOX4r6efjYLCHRg+y+lo7hMhvv6GC4Qoq2/oA0KfP0M7RM0BxAOXclA6yA3hGjN2mwFEOicpHIFk5alTIsxPULYaQqA0FCvKcv2a8yCwCYdqk0rFUpk5JexYkSdWnjhyTGRqlowlu1bWEvTAyT4Q35zcjFQKeLHHntM6J4aeoCyFQiqKAOElCgb0uqiXwfBgAWBP1BuoOBKxVrbgtC9z0t4+bXHQPNKRcYurE4YjYM1AUKfDWh79APsDFyIlV3/wjMnB2JJi6N4ameoUUB4tVsQDrr2hKezE3pOegEfPnsvim/swIIl3+JmaipiU50Qc+Mofp43HGfbvohZ7TIx5oULuBX3FT57IArbMv3h7wBkJ1zCrOVHcI94K57YnIWPl7yB4VHBBmchtmBBoPtz2R/X8ez4CLg5O+rVTmCDYpWprW4Ao+7M1RxAyCgoB2UzaKsZ2hIgcJYEJX47nMRgYdaI1pxtQ7AgNJqXuzmAwN/JVEviYkIu/jlzG8G+rpg5vLXRyoWNpkMa6EBlMhk2bNiAefPmgX7v378/+33KlCnVfOqUEkm1G7p21QQwN9BhN8huKVaDii5R3AbVY6AMhoZs+nUQ9AACV8FRKw5BxOosYs2a1VhtLSVFC1wMW/tswEshsRg6YxX6yC/g4e3xCLjwBZ4wARA0LgZVtTlZIR5p1waj1p/BjPYZGNR/PvZfP4b1z0zAOa/O8Hd0wdTnXkavYEe8OWkw2i7fj1nhDoCiAlKFA+wlSmTFnsRH8+eh3dObMee+DjZrQSBf+69HkvHkaJI81pijq4osGQtS1AYGcwChqEKGnw4k4ulxEeo+sjVA4K0GW08kIz2/DE+NjuBU/QQXQ0O+s0zetyWAwG+cNBSOXE3HgUvp6BXpi2FdguGmld1i8kEIC6p7gGoGvPHGG7hw4QL7G0kvkwgQlTum+gHkgqACTyQdTHUJGmN7/vnnWeYGiUKZW7qZMj0ImshqMHv2bKxfv75BrQfs/Uc6CKNGj2HXQp3S2GCAEIde477CkX+/ZEGK8ptfYfxXfti9nI9B2IwhC8tx6LvHIYIS0R/1wdY+P+DN4a3x2aQ2+DDnedw+9CpSt7+HJ3eG4r/vZuP7R7pht+9UjOkSBAePtpj2wADYs2C9Arzerx0e2R6HToEqQFCU4r17euJml4fhk3UEW44X49q1o/juiQH48GAGAn09ERgxBN+vW4bUv9/HE19dxrOPj8PFnb/i3o+2Q/r7XKSHjUDMtm/Qec4GPDFev5ywLVgQfth3E91ae6NLOOXR6vqrdQWWOCNsTX5D/jtzAKFcJsfbGy/hkye62zwg0HkdvprBBos3HoyCkyNXhpxr5vr69b/2hBgE6w8HtQEE7aPZe/4O/j6dgumDw9EjwheO9qZJP1v/jO6OLe7YsYNVHaSidVRzoLKyUseCOXjwYBw6dKjRnSzFWRD0kJUkJiYGkZFVAuMNnBFJJVO8AVVxpL7o3bs3Dh48aFY1x7rqLNsCBChQXFIBN1dVmUtFJUoqRHB1VqV2KKUoLlfCzZkLbFNUFEMqdoGjxA6yilKUwwlujnZQSMtRKrNjy0nLilBSwRUGEdk5wMODL8ChRHlxEexd3SHWCvJSyipQVFIOkcQeYqUCzm4ueGDYw3hn50a0t5djx1OtkfvUETzRvyXKSktQIVPA3sEZLs4OUFSWobi0AnYSR7i6OsNQufSGBgSZVIGX1p7Hl091h0RMA5z+QY6LMzAOCNS3DCrsKLTVNFERuVKJeV+fxvI5PeBkL0ZxuQye7DqbOuDWTmrZ1AdKO80xMa0I7/1yBSvm9oK7M6+VYOrx1rxHARBMvSKmL2ctQKA9UuDq8euZ+GpHNF6bEoUeEfrji0w/uqa9JL0vaEAlqWD6obx/ithPTk5GYwUEsn5QWqdEImE1KEjoqKZGMPDjjz8yqwopTVKfLFiwAMuWLWPbsIVmFBD42aNGD4GLPaDBz+ouBlvokWrHoMTGd+Zg7YEYwM4efpEjserzhQh0tfwCNjQg3MkqxaXEPIzvxQXf1TQoEyDwFgVj0cdctUhucm1oWTLd/nw4CTfTi1kMgqNEDCoE88kT3RAeQJYcUwfc+gcEGsSTs0uwZlcsc41waXGmHq8ACPX9eFsTEPhjJ9fcf5fTcCI6CxP6hLHKkUKzTg9QmWMqUnT16lVERUVhz549TByoNo0sFK+//jobhFu00Ci31mabhtZdvHgx3nvvPfXXpIJI+yShKBI2IlVJqmRJIEHWk4SEBBQUFLDlKbvjgw8+YPEZttQM1mJgwViq+uostZGLSmTpjSKImxAgWP9yNTQgfPpHNJ4Y0xo+bnyKoeFBTjtIUV/mgnbvVHUxGIKErSduY+P+m+pVAzydsOaFPqpKkKYOuA0DCPQMpOWVYt2eOEzq3xwdm1tH6lSwIFj/OasLQOCPMr+kEttPJINSJMf2CkW31j7cO1JoteoBGjjJ/07xCi4uLswVMXfuXIslhXkdhrFjx+Kff/6p1bHVtPLx48cxaNAgNpmiyookLU3ZCAQD+ppYLGYS1MOHD2dpjKNGjQL9zdaafkCgo2Q3O5+tIACCNS9cQwJCdkg1xPQAACAASURBVEEF3t18BSue7qH1QjMOCPSyNVRKmu8bQzEIVUGBsgJe//4CEtKL2ar92/tj4ZQOjQYQ6ECLyirx0a9XMXNEG7QL9ayxZLQp944ACKb0knnL1CUg8EdCpcNX/nUdZZVyPDysNVoEupnoZDPvXJrS0uR6oAJEv/zyCytlTJLDNOjSIE8Bjaaa38mEn5SUxEz9tJ3t27dj3LhxVtdhyMnJYQM8AQGJQZEoFN+ofgKVb6bsBLIeUAAjZWh0794drq62L8xVDRDUFKyVsSBYEKz7eDYkIBy+ksmisXu08dE6KdMAQQ0CWkqMNVkQ9PUaDwsl5TLM+eoU6PPFie0wtHNgowIEMq8R6CzacAkT+4RiYMfAWt0kAiDUqvv0rlwfgMDvmOTDv9lxA0kZxfhgdnd4ulq/9K71e8i2t1hcXMwG3pMnT7IDpRl2SEgIHnjgAUydOpVlQFSdfBAU0ED93XffYePGjSxgUC7nYtBofYKE8ePHW+3EadJEcQexsbFs0KciS8ZcsVbbeT1syCwLgoiXWIZYNWPi0hxnPvJwPRzq3bMLAoTg4BCMH38vO6mqWgPVz5RSTDXyyPz35tyIzAIgAj754zpefaBDlVmOeYBgCBRMyWLQPubzCbmsQNL3C/rD2UHc6ACB+kGhEGHtv3Fwd7HHQ0PCLb5JBUCwuOsMrlifgEAHQdycklPCXA+FpZVMbCnASxVwbf3TaxJbpAGe0v/+/PNPfP7556x0NN9oNk5+fapPQFaF0tJSEFRoFziiVMPHH3+cpVGSu4EggawT//vf/2pdG4JiJObMmYNbt26x2Ilff/0VVDvhbmpmAQKLQVD/sKGNRZ1GX7+uEk5SD12wU4fwq2IXaD32NUXGszxK9n9tdT5+bV3lKO2S09w+ueAI5gBRDbDcp0LBe0YoTqK6P9DOjgss1B+Zzy9ffSBWb0rPV9z2+CIH1fepbxCnG3jkyNGslGd9AkJsWhH+PZeG5++tmn5jGSBogwKfxWBsoKvaH1RquU87VT/YiNSy9gNuarGm344kIa+4Ek+PNS21qepLxFi/GR4FBallQ31T34CgfRwxKQX4+9RtVhl0cv8WCPQWQKG2AydlO5Cv//LlyyyQkfz7BAVkui8vL2eDM7kjKLCxffv2GDZsGDp27MiggN5PJFtMsECBixQ4SG6LyZMnm23qP3HiBFOEJAsFNVKJXLNmDTw9uXpAd1MzHxBYuiDNaLnBmrkf7LisBk2Mjh3EYu47biTnRJbs1ClzJDbDsuJ0AEEDH7SeZtDi/g6uBoRqDKbZKp9Sp87DV5I6gkI9nlcdjAgQuG3oS93jYy6qU4C+Msk6gwg7KIXeiHb9s3xVv6g2Ul8WhO/2xGNoVCAigrhKhXyjWXBhSZl2DSf1dzWlObKeYqmQPPqp+s4ASGlgSrNvvm/ZdzYICEzuQHXPOTvYw9nJwaBQ0v5LaTh1IxvzJ7WHs4N5WS4CIFj/tdqQgMCfTUJaIZPs7hXph5Hdgg0WRbP+2Qtb1NcDt2/fZkWQDhw4wNwPFAcwf/58TJgwgcEFQYazszOzSBBUEHhQ/AJlWBCYUGVFsgBTI3fHp59+ygDBHGtuY7oydxUg0JtcSW90lY+cBw4+uI4AgQMa7hLpXtS7HxD+tzUarzzQXjUQa27T11fuwMkriY3pvm2QY/XzcsUfnzwJe3vDQknJWSVYvvU6lj3e3SxBHQEQrH9JbQEQ+LNKTC/Cu5svYnS3EEwfEq5lYbX+eQtbNN4D5LagWAYSNNLXSPCILBN8/IL2MlRTYvny5cxVcbe3GgGBH0C5WTfNzLk0DPo/Tax4+WXOOmDYgkAuBW6w5mfuhi0InFVCI+vMD+SmWBCY1UElg0vFV/RZELjtKdXHrrnAdzcgnIrNQV5JJe7pEVwNEIbOWal1nwupWvofeiUc7CXYtWIunJjkrmElxYS0IqzfE4+XJ3eAj4Ey2lX3IQCC9V+1tgQIdHaU8RCdnI8fD95E9zY+eHBQOMSG1NSs3x3CFqv0AE0cqe4DBUFu3bqV6S5QDIO+RuqGBBSkV9ChQwemmNgU2l0DCJyVwE5tHaCLVzUtr2oMgnZ9CVVEhN5gwMbuYqCuWbTxEhZMbgd/TyeDgODfMgpiiRB9re/Bz02NA6Ql2LVinlFAoPWTMovxw954PDaqDVowAaiamwAIxnrI/O9tDRD4MyCxsAOX0nAyOpPpJ4zuEQoHian6H+b3g7CGaT1A4wWlJVKMAgkYkaXA19cXPj4+LD2xKTarAgIXgMjFD2jHIJhnQeCtDZqZrLEYBO7CcRYA3n3AWQpEOhGt+oIUNQGRd68FgVKw1u65iRcmtuV6qkqMAG9BEADB8CvAXECgLVHQ4js/XsScsZHo2KLm6GYBEKz/+rVVQODPlKqF7jidzFQZ7+/XHN1a+8LJwfbEcqx/ZYQtNpYeqAYI/MCqnV2gz8WgndFA65B+gvY6lgYpstBD1bb4TjQNEDgCF/HF9rRiDPi0F0NZDBwk8IGDimquicZuQdhxJhWdWniiZTNuJisAgvmPpyWAQHuh8sGvrD2LKQNboH8NsrwCIJh/TYytYeuAoH38fx6/hW0nkvH2Q13QOsij1sJbxvpG+F7oAVN6QBcQODrQSmXkZvGNHRA0tQQ4OtcXmW9nR99p4iS0O68xA0KFVIG535zBN/N6wclRdf6CBcGUZ0NnGUsBgTZSKVMwrQQ/D0dMHdRS774FQDD7khhdoTEBAp1MQUkl/rucjn0XU/H02Lbo1NI6Mt5GO0pYQOgBAz1QBRBIX0Azg68pSLExWRA0566yMuhNc1SlYupxBTZmQLiRUoiTMTl4bGQrJpQkWBAsexfUBhBoj2RO/vVwIiqkcswa0QYSsW4wqAAIll2XmtZqbIDAn0t2YTl2nLqN9LwyjOsViqiWPoJFwfq3h7BFE3rACCBw6Vy8BQGkoKiyKOgCghJ2WmBB+7UlFwPfD2QlULDsBv06CBTMpzluTe+xpSlLo0ahJNvUQVi/7yYeHtICTg4SARBMeCAMLVJbQKDt0u2z7XgysgrKMXNEa6YeyTcBEGpxcQzNfigGid5fNVRH4B9pW8zdIVD4fk8cy3SY2K85WjVzv2vz7a1/9YUtWqMHanAx8KmGSojsVMF/Sm56zQsWqdMRRQoKS6wWg8DGVaaayD2iqoKQELFAAf1CSXURg6ABBE78ghM1MqyDUDUGorECAtU5+OiP63j/kc7s2ggWBMsfGWsAAr/3UzHZ2H3uDhZNjYK9KnpdAATLr42hNRurBaHq+ZDVaenmi0x8a8GkDnBxsrd+ZwlbFHpATw8YAQRuDTZgsjLPXDCf2YDA5Ak4FUTup+EAgTsfpTq7QaOVUD2LQS20ZMA0r5792aiS4q5zacyUPaprMwEQavn4WxMQ6FCuJ+fjh30JeH9WN5biJgBCLS+QvpdbI7cgaJ8STWzu5JTip4M3IZXJ8cLEDvBwEVKSrX/XCFvU7gGTAIFVeNSq7mgZIPDBj7YBCPTAsVm1ujKh/jRHBhDsp/G5GD778waenxDJDUB1aEEIbxuC8tg7SFPZa1tGBEN5MxW3uCJqVmsi3xA826YMX53Ktdo2Td2QtQGB9nszrQir/onBgkkdEWypVj9vmqt2Iubm1VfP3jG1b2x1ubvFgqDdv5QVc/1WPnadS4GniwMeHNgS3lpiXBQQW1EpZ8XDhCb0QG17wLQsBtUgqRu0yLkPuAFUv4uBX577NA4I3OyetmlcSZGkG3VnXYbTHPlO0pfmqKn8ZVgHQR1vYaC3ufOzrRgE8nP/fToVj49qpbYC1ZWLYdC47ijZdR7nVYAwYFQX4PAlHKuo7e1pO+vXBSDQ2VHk+vu/XMYToyLQPsyCYi8CIBi8Se5GQNA+2fPxOdhyLAnd2/hheJcgeLs54ExsNr7bHYMVz/QVNBVs5/XRaI+kHgHBuIvBXEBQFXVUdb5lgEArkxWBMyQYTnNkOg8Ggp1sERC+3hmHIZ380Ukl0FOXFgTDgCDCqOEdMLWzO84euopvLxQjtHUwnh3dEj7KcqzbehWnMqV4aEIXpJYo8HB4MRZ8n4yR4zphYhtHbP/zArbdqlQ/XCLPELzQoRxfnszH0BEd8GgXd+zffQWbrhXB1csDL0xuj7aedjh+Ig7rT2UDEl/M7ecARVgoOrtW4uMNl5FYUUMlqRoe47oCBNolzQpfX38eM4aEM2U9s5oACE0WEPgTv5acj0+3XGXWBMqUockBKXhOGRReQ3imWXeZsHAT7YFGCwg0G+YtCLx6Ixvi9QglGbIg8H/nXA28u0G/UJLKvqA3itjWAIEyNRb/dAVLH45SF4VpEECQe2HJZF988mcSnJzskF/qhLenhWHnyTTIJfZ4drQ/Fn1zHeNn9EXKvnM4miuDwjcYS/pLsPSv23CVKJFbxgWUsmvrHYpXOpVh+TURVjzgh5d/iIOzBMgrl+DZxztj2y8XkC0Fxo/pBLcb17A5yRNfTPPAu1uS4RwSiMVRlXjyzyyLHvW6BAQ6IDILf7srFq2C3HFvr1DTj1EAhCYPCNQBlVI5vt8Xj+0nkll/2NmJ8M7DXdEzgiulLjShByzpAQYII0eNVg98fGCejpKiQRcDX9KZMhIoEpGKNnERfdrpgvwAbixIkQ0CJroYrAEImgBFtmeu/I6SG5C0t8+b5quWl9YGDFtyMSSkFSM5uwTDogI1g2sdxiD0H9MNOHgBx1WT/SFju6F07wWckYnQqWMIBrf2QEVGGjbGOuOT+32w6xIXQ6CUV+DY5VxMmdINf/9+HnnsMojRq2sIerdwR9aNRPx2o1RzDipA+N/RPHTsGIxBrT1RknwHm24o8eHsVli0+gJbNqpPW0wUp+LjM45YPEiJxQdy4BHoh5WjHDH7xzuWPCeoa0Ag2KVo9Z8PJ8FeIsJ0Uwv5CIAgAAIAqu8w96sTSMkuUfdHkI8zvni6D9yd6zcegSogFhUVqX+kUimrikjuXPohiy3FsYnFYvZJpZWp+JG7uzs8PDxgb1+/x2vRC6GJrFRrQGDBe1QkSTX66wMELl7Aui4GawMC5WgwFwNlTpPLQStzoSogcCCjWyvCVgCBL8z08qR2TLlPG2LqKgahRbtWeCm8FMuO5gIubnh0bHOs/OEiSp2c0coDyFM44aPH2+C1FdF4+aFW+HVnHNIqRegYKMaxmGI8/KAGEJw9XREkkaNY4ozPHvDFzG8SERXhgStxeWoLwpfnSxDuCqSX2WHJtOZYsP4mnnm0G07tvITEMhEmjY5E6tGr2J/j3agAga4VuRs2H0qEVKbEw0PDjRfxEQBBAAQA5GbYcjSJ3T8KBXcfkSWxaysfTB0cbvFwRiWPMzMzkZeXx4oY0U92djZSUlJw+/Zt9kkFjggIqMARfZaUaCDFkh07OTkxWPD09GSfXl5eCAkJQVhYGPvx9/eHt7c3+zv90P8JLIRm/R4QLV6yRDly5GhGcvzAp21FoL/xg3/1IEVVdP9dAAicBYEsIBSPoAT7R8KSKmsC64cqHj3dIEzbCFLMyC/Hx39cx+dPdte5W+rSxUA6F1G9WuOxXn6Q5uXjh50xiC5QABJnPP1gB3TxUGL7ziv4N0WKZs2b4ZlRzeGlKMdPO6JxJkuGiWPa48C/11EEwN7TEy9OjERLRynW/n4FFwvs8eJDrfHl5msQeYfhlY6l+PxCOZ6Z2B5RXsDm7Vdx6E45XNzd8dzk9mjpLMfO/THYGVcMscQL83oCK0/mw9XXG+8MtMfC7ZkWPUX1YUHQPrBdZ+/gclIe5t/foWZIEABBAASL7mjNSvS+o0G9vLwchYWFOHfuHP777z/2Ex0dXa0qrvakQyyWwE4shshOzInl2VFFXa1PlUWYf3VykvaAQqFKceLMtpxlgVkY5FAqVZYGlcWB/iaXy9j3hlpoaCgrxTxkyBD0798ffn5+INBwdXVllgqhWdYDakCo6low1cVwt1gQqgIC352kxMY3Q4psHFzZBiDsvZCOyBC3aiWG6xQQLLv3zFpLIrFHl4Gd0Ds/Easu5pu1rjUWrm9AoGO+eDMXa/fE4/Mne6oFlaqdiwAIAiBYeIPHx8dj8+bN+OWXX5CVlYXS0lIGCZrMLm7DNOj7BYYhMDQcgSHh6k9vvyBI7B3YAMyBAf/JAwIHDXwWmN7DZJMxDhg4QCBQ0HZHKKCQyyGTSVGUn42MO0nISElERspNZNxJRGZqEmRSTSAzO16RiJVndnZ2ZlaIe++9FzNnzkTv3r0t7Kmmu5po8eIlylGjx2gGQaK/KpUZq1kU2DIqM3sNLgY+tVE3xdGwDgJ3cU1Lc7S2i4EBgkhZTbCGsySQKYEcKfoFWbn+odu8eu65bpyDmr1V1SNVD6BRlRzqk+rR91W3TSbF9369hiUPdao+jtRhDEJ9PD6Ozi7o29oVF2OzUVBpWSZCbY6zIQCBjjf2TiG+3R2Llyd3RJA+rQQBEARAMPHGjouLw4YNG3Ds2DHExMQgPT1dbR2gwT24ZSRCWkYiuEUk/IOaw8snEJ6+AfDw9mODvy02ejcXF+ahICcDBbmZyMm4g9TkWNxJikXKzWhUVpSrD5vcEW3btkX37t0ZMPTr188WT8mmjkn09tuLGSDU5GKwHBDYkK/WNbD5IEU9gEBnwBiXMYJhQCALAlOIrNLqExCuJOXjWHQ2nhnb5q4DhIZ+ahoKEOi8MwvKsfLvG5g1vBUigqv4WgVAEAChhoeDrATkKti0aROOHj2qsg6I4O3fDEFhrRHaqgMio3qjdccecHBwaujHzKr7J3hIir2M2CuncCv2CtJvJyArLVnt3mjXrh1mz56N0aNHo2vXruox0KoH0cg3JnrrrbeVw4aPgIODg47lQB1voJXBYG4Mgmp+3EgAQTdzwZzrqp3mWBUI6hMQvt0dj/v6hKKZd/UHvbG7GMy5HnWxbEMCAp1PaYUc7/58EU+MaoPIEC1BJQEQBEDQ0wMUWLh06VJ8/fXX7FuKE3D39EWnXkMwbvqz8PLVZDjVxfNiq9ssLyvBwb824fje31GUlwOplFNzGzZsGL7//nsWBMlPlm31HOrzuBggDBk6jKWaUHqJTiyC6kjIv6QTk2CCi4Hc8tzg2FgsCMYBgQ2yamlmzWXSBgT+r7oBjNXsClZ3MdBxLd8WA8pe0NcEQKjdY9XQgEBHXy6V4+Pfr+De3mHo2caX52+1DLruGQpSy3TPN+ZqjpbcsfQeeO+99/DJJ5+wwEMKIuw7cjLGTHkKnj4BLGZAaGBBj2XFhTi25w/s2fIdykuL2SR57NixLCaDAhyFBjBAGDpsOBvMKdhEDQms0rNKO1AVk8CTFV+LgQs+MZzmaKoFQXtQNRSDQO599X5peNVyQ3ODseVKivz+teMaDA2y6mW1QEEfINBy2lCluz0OnDTnbcynbjwGgYITqY3q1kwAhDp4sm0BEOi0SCth7Z44BPu4YFK/5txtpNf1JQBCUwMECjCcNm0a/vrrLxYzMGLSYxg0djp8A0Lq4Im4ezZZUlSAc0d2YtsPn6GivBSdO3fGrl27EBwcfPecpIVnorYg8DNeoiiJhKJRCRBUYXm2BAiqIkva59sQgED7560JhgDBMCRYHxDe3HQZCye3g5er/hmCYEGw8AlRrWYrgMCfxQ/74lkZ9pnDW6lNoiSx6+/Jz3wEQGhqgPDKK6/gs88+g49/MJ56YwWat+lYu5u+ia1dUpSPdcvmI+bySZYuSbEbTb3pWBD4AY2sCBJ7cY0WBIra41wP9WxBUM3ctX37dQ0I+oSStC0JxgCB71fNzWZdQKAKbj8dTMJjqsJMhqwfdSWU1BQeIlsDBOrzv07dRmxqEV66vz12nE7BhYRcvPtIV9XlEAChKQFCcXExAgMDATsJPvj+Pzg4OjeFx9Lq50iTvo9fmoyUxBtMD4IyHppyE7351lvKYcNG6EgtU4dQHqmYF09SfWq7GKiCI3MHqJL/2HdVpJa5jjUeg8BfAM4krz/NEXacPKdu/QXVHqzkYjB0I9QECJp1jOsgaKDGuoCwYX8iBnbwR+sgN4P3smBBqN1jbouAQI6pi4m5+Pj3qyirkLN88u/n94efB1kRBEBoSoDw22+/MfdCq/bd8fKyn2p3szfxtX9a+RaO792CcePGYefOnU26N/RaEHjfuYO9vVoVq2qQogAIWvYAVblnKvhUtenLYiAIslYMQmmFDHO+OoN1L/SBo73hQUEAhNo957YICHRG127n4/UfzquqkQJjugfj+fvaC4CgigFqKkGKW7ZswZQpU5hmwfvrDkAsEeoZWPrEL3/tYSREn2eZDQcOHLB0M3fFeqK33n5bOXTocG6uryWQRL/zhTR4qcq72YJAsy/9KgdcdgO1moSSmFACiS1VyXLQBwi8VUVjObE8SPF6cgHi04pYemNNTQCE2j2vtggIFHMwf+0Z5JdI1ScX4OWE9S8NEAChiQHC4cOHmd+cWljrDnjq9RXwDRSCE8156ivLy/Dbt+/hxL4/2Wpvv/02SxVtyo1JLZOLgZfXrAoJ9H8KXOQyCLiRknMn3F0uBk4SXMnOsWo2g2mAoOti0A1grGZXUOMI19+WA8LXO2Mxb3yk0brvAiDU7jG3RUCgM6qQyXHiRjb2X0rDnZxS5BVX4uNHu6NtqLeZJ1y9zLmZG7C5xZuSi4EHBLJOUi0De0cnPPjUInQfcA+cXd1t7trY0gFJKysQf+0sNn25iKkxssA6pVIABBqlqNzziJGj1OU4NYDA0hjYgElA4EhCStoFnezoO8MxCGxRGvwaQQyCzqyfVZ7UvX3rEhA44DL2uOhPc8wurMTn22/gw1ldjG1ADT7MUlTl/IbOWcnW928ZBbFEyJPW15m2CgjaaY5U8pfSIMmq1DPC3+g9obuAAAhmdphNLc4Dgk9YBzh7NcOdK5xpnOBg7PR5GDJuhqCBUOWK0Xv/0sn92Lr+Y+RmpjLrr5t/CwS17Ye4o78IgEBjBV/NkUBAJpOxTuKDBXlAoP9LxGJItIWU7gJA0PuEWwkQ+G2zmXs1cSX9QYr63REMIfRaGXacSYWfpyP6tfUz+rISLAhGu6jGBRoDIOiegFHqrHK+AiDU7g5p2LV5QPBt0RkDH/8cBekJiN6/HhmxJ9mBUS2ToLA26D5wLAaNndZksxyoKNT5o//i+N4/cCfxBqvjQM3dvwWixr8AvxadEH/8D1zf+50ACAwQFi9Rjhw1Wu0+kMup3KbKOsD73lXuBbIkUAqkKS6GxmBBqC9AoP3oQoLhLAb9kKAfEJZvu4H597fjynEbaQIgGOuhmr8XAKF2/dcQazdFFwMPCPw7J/f2NaReP4zM2FMozklhl4EswWGtOqBl285o0SaK6SU0CyM9DdssyFSbeycnIwXJ8ddwK/4qkmIu41bcFVRWlLFNOrh4IrBtXwS1G4DAiD6wE0vY38l6IAAC1+vMgjBqFFfNkR+cNJCgFXOgij3gIUHELAjkQBAzK2fVNEdTAUF7vzWnOaqUFPnZONNf4I6PO27zlRTrExD4fXGgYFqaowYWqgNCYkYJDl/LxKMjWpn0/AiAYFI3GVxIAITa9V9DrN3UAaFqn+fcuoKEk1tQmH4T5UU5kEs1lQ6dXdxZwaaWkZ3RIiIKnt7+cHHzgIubJ7M+2HKjGILS4gKUFheiqCAXKYnRDAZuRp9HXjanMMuBkQRO7j5w9QlGy54TENxxiN4CfAIgaK52NUBgg5JSCalMptIwUA3M3EiskWR2IDCgGAQRVwtcVdSJn83WDAikm8z5wvmYB36gr0lqWczJO7Kjp7gAPqugMQECO3Z2CqZJLfPnVjWQ8dM/b+D+vqGICDYtAEkAhNq94gRAqF3/NcTaAiDU1OtKZCddRtKZv3Dnag2KgSIRXNzcEdqyPYJaRKjLQVNJaEen+hVjksukSE+5idRbcaycc+qtWKQmxSAvJ4N/qeo9YbKqhPeeiOAOgyAywUoiAIIRQKChi8YwmUyuE6ioncUgFtuxQiAsu8FcC4KdqohTlXoFNVkQOP7gaj80dkDgLQiaTIeasxiojHRVQFi2JRqvPdDeYAnqqk+KAAi1G6LuNkCge48yl+iHnmEC+rutip0ACKbd8wq5jFkUpGWFKCvMRv6dGOTducE+K8sKDW7E3sGRxTLQp1gigVhsz31KuE+JhBR5HVlwpNiO5PvpPuME9ZRyBRRKObv/aOCXVpazGDj6Xa7+lEIml0EurURFRRkoDdFQo+Bqr+BIeIW0g3dIO7j4BMHB2QNObj4Qm1nGWgCEGgCBLAA8CCiUXNUrzeye+467yIBETDeFmHvBmGNBIECg/ZhjQSCLAaMDJf3CjqmxWhC0XQxcvIdpaY78dbl4Mw/F5TIM6hhg2htABWLGpJZdPP1NImyTd3oXLVhelAexSIZdK+bByYl8lfw1MzcYUH+nGL0FDPWlCMjJzUVcXBySkpKQkZHBfjIzs0Alf3NyclhVv9LSEvbJ/V7KspaqNnqWXVxc4OrqqvPj6+uLgIAA9kNyvvQTHh6OiIgI+Pj42OxVFgChlpdGqURFST5K89PZJ/spzlP9nqf6PQ+yilLIK8sgk5ZDIdNoctRm7+QOkDg4scFd4uAMBxcvOLl5w5F+XL3g6Eq/e8HB1RvOHv5wpncXszDXvgmAYIIFgXcn8DMN+uRnGBwkcLLI9FKhUtFcPIJmFlKji8ECQNC1IJBWgbJOAIGfaWu/sC1Jc+S7WH/QoW4MAkAaCjU1TQyCQqnEC9+ex9KHO8PPw9Hkp6EmC8KUV9cjO7/E5G011QVdnRzw9xfPwNGRgrnqHxBohpWeno7bKSk4fvw4jh49ijNnzyAtLU3vJaGgMwdHJ24Gp5rZ0ayOZnicK493cymZ24vy52kGJ2OzONWnVMqCunidlKo7oop3vXr1wuDBg9G3b1+EhYUhKCiIvRcaugmAUP9XgKwRemr+1QAAIABJREFU0vJi1U8JZOXFkMulAFmrlAqA/dDMUCWpTxZoOwnsnVxh7+wGe0c32Du5QdyAZakFQDADEPhFyeyjrYPAAwI9hDwkaFsfBEDges4UQOAtCNXTIfne1wBCRn451u65ibemdTTZvcAfhyELQqVUgXM3bkNBJqMqTaQeCK30smFjklbWhXYCRpXYDFP3yI9z3Cd/DsYzO0zavpbEZptgPwQFeKmEJOoHEOieqKysxLJPluHzL75AYaHG5MvH79Bg7+LuiTYdeiC0VXsEt4xEcPNI+AYEq59Zk87VwEIEDhQNficpjvl/KQgs5tJJVJaXMqigY9S+d93c3PDaa6/hxRdfZJYI/c9AbY7ItHUFQDCtn4SldHtAAAQzAYEsB0ryFZFZUl36mbMgUKPvCRLsVZYE7m81CCXZqAWBKSiqXB/at0xdWxCquhiqg4IGEEj7oE+kL/w9HXVevMZewjVZEGoq7GPc/WHe66XqcWqXr+CsNqaaCfmRm1w0PIzxgFDVQmPeMWovTcekA1bMlEX7rntA2LhpI/73v09xM/Emysu5iHOyBnToPhjdB45GSMu2TAjH2dUDjk4u9T4Ql5eVoKy4EKUlhaz63cXjexB94TjzJ1MjdwW5IhYuXIhZs2ZZfhEsXFMABAs7romvJgBCFUAYOZLTQVD/sEmeJhaBuRQosIQFLsrUwYJkwuTXoe/txHaQSCi7gXNBcDUH9FRzbGBAoMqQ7BS1JsxKdqz66zHUNyDwl0cDChwgUFnnd36+ivcfiWLXo+pgWxMkCIBg2VuvIQDh2PHjeGPRGzh27Bh7DoObR6Br/1Ho2GMwQlu1g8SG1S4p5YwEaK6eO4wLx/5F+u0Edp8OGjQIy5cvr9fyuQIgWHbPN/W1BEDQAwjaEcx8wCE3wHOzav5v5ItkAxcLGuT8mJosBgpc5LMbbBcQqs3YWewjLwtd3czeUIDA5sMsJ5IDhHMJebh2qwCzhrfkAEePQJIhSBAAwbLXXn0DwvXr19GnX18WSBjWuiMmzpqP9l37c/rwjbBdO3sI2zd+jjtJMXBycmKxE127dq2XMxEAoV66+a7biQAIRgCBtwpUBQSKQeBntXKFDHYs/U4XEMg4QJYFe3uK9LZNC4I2IKhN3DYKCNylIrO7Aqt3xTM4cHHkFL9qgoGqT60ACJa9x+oTEOjZ6tCpI2JjY3HPtHmY8PDzlh20Da716+r3cPifn3HPPWPwzz//1MsRCoBQL9181+1EAAQDLgZ+0KkJENgydkoWjEpBbdouBs6qwJZgrgbKbuBmvzwocBMhUQO6GHTSClXpkqw7bBwQyiul+GZXPBZMbKu+esbiDrQhQgAEy95j9QkIlKEQEsaV7V6yahcCQjhL0d3QKspL8fK0XmziwMdT1PV5CYBQ1z18d25fAASTAIEGdm5BbRcDG+zJh8+m3iKW/lRVKIktz4RXSCOB00ngIEEFCKoNa8c9aOBElf6iZVLlltOtD2GZkqJuAJzuAMu7RGzLxcBdATtsP3UbXm4OGNqJ0z7gi2qZ+oiyc1UBUfWce8OBgUKQYv0FKebm5sI/kLu+XfqNxIxnl8LNw9yyzabeEfW3XElRPn5a+TYundzHdmooZdLaRyQAgrV7tGlsTwCE2gKCKpqPYhB4nYSqQklisca9QLnXbJhj2gka07gACDyAGRdKeveXK3j9gfZwctDNLzcVFHgLgkbDUvthFwDB0KuvPi0I+fn58PXXVOb08PLDxNkvo13XfvDyJXBoXHEI+dnpuHb+CItBKFFVzSORJUO6DdYefgRAMK1HKRutdXMv+DqKkJZZiOR8/WJHIv9gLOpthw92ckWfLG1dekXAIzYORwqMb8HBPwBPdpLgm4Opxhe20hICINQCELiBnquJoF39i9IgafTnazHwgEAvNZJkpjRIwYLAd7xpxZr4pUvKFfjrdApmDGmhvnK89cOwdoLu01LVxaBrPREAwdYAgSRjC9LioVRwSqbtuw3EhEdeRGBIS9g7OrFnytYaaaVQimNm6i1s37gcNy6e4KTa7cTwCmmLwoyb8PP2FAChDi5c1XLP5uwivE9XPOKeiS0JlejS3BU/H7qld3VRYAiW9LbDO3/fNmfzZi87eEQnOJy9in0mAITZGzdhBQEQzAQENvNnrgY7luqoDQjqeAWVtrs6JoFJbougJN++Sp7Z3l6TFkmHIFgQuAuhz4yvbRn48u84TOgdjNbN3HRu76oxCDXBQk0xCFTrweAAabEGsP4tVjtmbc2kJq6DoG1BGPv6NpQVZiH20CakXT+idik5OruyKnthrdqjc58RaNOxJ/yahZnw2rP+InS/5aTfRty1s8x9cCcxhlXVI30EvoV0Goa2Q2ayCnp7P58BT1d7ARCsfylgOSCIMGjyAHidOoO/71SojswODzzUGVd2XEJskRJ9R3TBtaNXUOwVhHcHOuNypSv6esuxals0EgrlCAoPwUujQ5B4MR7fncqFvasr5tzfDsEoxQ//xCEZrngrSoLbwS1w52IsbroEwiU6AWfcQzAxWAqP8CB0cK7E8i0xcGzdHO+ObwFRWTkuH7+KLxJdMK+bBF8fSIO9pzeev7cVgiVS7DgQg/9uVyCkUxsMcCxCSLtQeJXk4LMdSSiUidCtTwRmd/XA3j3XsDPRcA0HfZdCAASzAYErrcwGGaZxoLEg6AQpqv2LZF3g8/R1dRAoeFEnpVIVn6ABBiEGgfridFwuth5PQYcwD+y9mI7vX+oDe3FNMRSai6oPFEwJUtQX9CjEINRfDII2IIx74y8mP0utojgXWYkXkZVwDtlJl1Capyut7OTsCi+/ZvD2bQZXDy8Wt+DpGwgv30B4ePvB2cUNBBZOzm6gZal8r75rTaqIFWWlbICvKCthn2WlxSjMzUJ+bgbyszNRUpSH4sI85OdkIC8rDRR8qN1cvIPgF94VAa17wC+8G9PNp0YSvHuXPyQAQh3AAW3SckAAHFzd8dSECPhKi/H30SRcyJTjmef64cSPx3EpT4ExD/THqX9OosAjCKvu88GK7XHId/DGgr4OWLQ1Ey/NjcKmTRfh4eWIxNvlmPFIV1zecwUpCgf4iqVIkTvjh1ktsXjjdSQXStGub3t4n7+KfZ6tsHywPb7ecwtyL3+81FGKhTuzMPKeKDhejMaejEqUeAfh/QH2WLIrA8vntMf6X28gVeGIxya1xffrT8OtRyfMa16KFfvuIKh3FELjr2NbnjO+eMAfi3++iWA34Fo6Dz6mdb4ACHUECPxLhxQXuaJdfOCfbpCiunaDljiTAAi6N29CejFe33BZ/cf+7fwwpnszdGzuqf6bvpe89la0QcEUQOCvgfY2BEBoeEDQvTOUKMlLZ7CQnxqDsvxMVomPfirLirQUHmt+GaqDh+0o0JikkhVQ6CngZMAOBAcXdzi5+cLJwxfOngHwCmmPgNbd4eLVTO8qAiCYNjhZulRtAIHfZ2h4MF4aGYCla69gBgHCT8dxKVcXEDQuBhE+fLIjPl93DX5dWuH+cHtciUvHngQl3pkVjkVrLqpPxd3fB9/e44SZm1JBDrNeQzqpAeHFlkX4/GgWJI4O+OaJVlj4zQ10G90ZTmcuY3ceIAoIZoDw0cEirBrpgNl/pLPKNf3H9oTyv/PI6NwRI+XJ+PZsAexaROJxj3SsvVaKUcMi0MlZhjOXU3A0WbAgWHpfiRYvWaLklRQ1gzQ/6+c2yxVvNG5B0AxY3AvHECCwIk8SKtJhxwou8etx1gjBgkB9XlBSiSe/Oqu+rg4SO7x4XySTWeabMUDgl+PdFYZqMRiSN+azR0y9uZhUtZF4S8HFYGDIVQKGLAim9j9V1SvOSUFxdjKKspJRnJWMkrw0VJYWqOolcMVy6NkkX6FSJRfNeXk4GVEmn84/g2IxK5lLVgEP/+Zw86OfMLj5hkHi6GzqYbHlBEAwq7vMXthyQBDBzVUCaYUcsJPgqelR+H3jBYyc0w8pu87iZCYw8+Ge+OPnE8yC8NlwZ7y95SbkYjd8cL8f3vglCY5OdiivVOD5R3vgv61XMWp6J6xZdw6lsIOTGFC6eRgEhPe7SvH+v3fg6OGDj0Y44vnf7qD/yM7wvXYNOzIVkPpyFoSle7Px3WMtsPDbG8hT2mPWw93w94+n4Nq9UzVAWB9dAhcxUCEXYdkTEViwJtqs/hQsCJruMgkQ6J3BD+SGXQy84h/3uqEgRZmMIIF76XCDDZ/mKGYpdxI7zl0hAIKe1EolMOOzE5DJue8+mtUZEcHuOje6qYCgBgU+bbXa7owHKRrbl2H40H02BUCoO0Co6S3IiioxFVTuU11Lgqmi8ojAVM6451X1adabtYaFBUCwVk/q347lgGCHvkPb4qGOXhBXlmPHwVjsji+Bk7cfFk+PgCg7GyeKPXDo4AUUejTDGwOcUe7hizZOUqz64yquFNhh1uSOGBLsiEtn4rD6eDa8ggPx+v2t4FBRik07b+Ca1AVrRjti9uZ0ZkHoObADPC5cx3/erbC4tz0qvDwRhDJ89tt13CqWI6hFMJZObokL+y5gVboXlvS3xzt/3Ubzts3x/LBguMrLsWP/DexKKEPznh0xUnEb684Xwi6sDWZ5ZGBzih1entwWrd1E2LH7GrbFFZvV+QIg1BMg8DoJGkVFXihJzGU8sEwIOy2dhKZhQaB3slyrwrMhM/7z356HVKbEmw92RPOA6jM2Y4O29lPBxY9QU0KkpN+1KcFw+py2wm9Nar8mA4Jqpqp9bLrrmlusSRPkqanmWPM2yBomrhLPYegN0lBpjtoxCGa93Wx0YQEQ6vbCWA4IdXtcNW3dLrQVeBdDwx1F9T0LgKANCIuXKEeMHKUOHNRkFmgJJVloQWBZD6zOvKo4krYFQaXbw2c4aMSU6tbFoFW9t0qgVv0IJZVVSPHke78gI9c41br6hqGsIAMKWaUtPT+N/ljonps5vhfmTB5g9FwEQDDaRSYtIACCSd1k8UKNERBEXn4Y5leOA/HG34UWd4wFKwqAUAUQRo4azf6inXbIuQW4Be1owq9KVzTuYuDWoRkaH4NAPk0ya/IzPEqro1mjmC+vrApW5LQS9AMCOw6V0BKbBxNgqIRjuP1ws0bK2OP94FVn2Or/03aYZVV75lw/gFBQXI4HX/+BgZPIzvZy2S14nhrZKkrmD+/eLgwrXp1i9NgFQDDaRSYtIACCSd1k8UKNERAsPtk6XlEABDMBwbwYBP2AwAZjpVyVz83FIJCLgYcSHlDEYnuduAT+73cbIDi4eMEz8O7R2q/jZ9Zqm6eBKivpigAIVutR0zYkAIJp/WTpUgIgWNpz1dcTAMECQOCzGCieQL8OAh+kaBgQ7ESU3UDeb27mztVsqp7FQCpx/D54eVlWSoAFTnHbb+wWBAdXL3gFtrLeXS1syaQeoIEqM/GSAAgm9Zb1FhIAwXp9qW9LAiBYr38FQKhnQOBSp0iGWRUYp6rhwGSXqgECp7ao46JQLScAgvUegqa6JQEQGubKC4BQt/0uAIL1+lcABJMAoerMXvP/mi0ImjTH6joIfLAiBQpQSrZcrwVBkxapsVbwwYyCBcF6D0JT3NLdDwh2GP/YICRsO4YbeZRUJsLI6YOQsPs4EvO5ug4N0QRAqNteFwDBev0rAIKNAAK5GKqq/VUNUuTAQFPPQQAE6z0ITXFLTQEQJj81GNFbjiI6l4DADmNnDkLMjuO4mae/Sl993AcCINRtLwuAYL3+FQDBhgCB5edTXIKSdzfoy2Kg+AOxOnedxTs28iwGIQbBeg+0OVtqyoCQJHXBq/e3QHxSIXzLc7HmXCkeGN8eHsVFULi5wzEzFd+eLsb8V3rDPSEN1+OzsTtdjDfvCcS5pHJUpGfibzNFZ/hrIwCCOXep+cvaIiCIPAKwfHoIjkfnwc3DFZGeVOApFsmlIkx9fAC8k2+jWOyMKF8Flmy+AfMqJpjfR6auIQCCtQFBJcfMEg9VU3ztcs8al4Gui0E7SFEDCYYAgSwJfDVIARBMvdmF5XR7oEkDgtwNb08Kxa6DibiQUgxJcAhWTArC2fhClh/c3V+OpzfcwssLemDz1yeRVqGARzN/vDvGFxv2JuNqWilkRqS0Dd1vAiDU7ZNoi4Bg5xmId0eSNHMSO/nugztjtDgDHx/MxkNP9sep30/gZoECT8zsgf9+PIMEC+8ta/esAAhWAAReQpk2xdwAKh1l9qmSWtbWQeCWMQwI/CFx5aFVmvCqP/IyzWoxJUYWlusgMKuF1vrcbupXB8GWLAhUKMVZLkWRCW9/T3dHFBdVQG6lp9LdzRHysgqUWmuDRo7r7gcEEYbPGIyyAydwIr0SEEkw++kBOPTzUSQVyOHg5IQxgyMw3Ckb71y1x6Iednjtd+4FTo+VQumI+S91w/qvT6FAyj2vji4ueGB0O4RlJ2PZ0WyLrrwACBZ1m8krNQZAgJMf/jfFGwt/vImHnhoAu+s3UeLojkHBciz8MZYVYbKFJgCClQBBI6FsHUDQCB7RraKRy9UGBDaUU0wC/bB/vOCR6UJJjRMQ7DF/Tl/09RWhKK8QK3+/hks51vEph/eKwqCcGGy8aUyxUYwXZkXht40XkW6lJ/nhB7oj+9hF/JteP6+Hux8QAIlXMFbP8McPu2/BKTQIj0ZW4Ml1N+EWHoIJ/lKczbfH/L4OePzHdLw5txtuHYvDDbkLRvhXYtn+XB1AaB0ZjG6O5YhXemNa81K88Y9uqWlTbwMBEEztKcuWawyAIHLxx7L7PfHq5kRmQTj/5ymkVEgwY2InyE+ew/qEepolGOliARCsCAhs5kH1FKxgQeBAgHNT6Eo081YFVSaFSMlVgqRlzQQEVnGQ9tPASopmWxBEjnhzdjus+fU6RK6uePPBMHz63RWkNFxgumVvsgZeqykAAnWxr68bQjwdIK+sxM3UYpQpyJggQesgd7hJlEhOLURuhQLOLk5oFegCO7kMyenFKKgEmjf3QOrtfOZOkDjYo3WQG5xECiSmFqGw0jKQEwChbm/8xgAI/UZ1Re+SFHx5PE/LxSBDu6gIzGuWhRf25tdtJ5m4dQEQrAAIVPSHYgLYjN6Ai4H7TlU+lv2uVc1RqxYDH7egDQisGC0VFWLBixpBJcpo4HaqKUHNpV2q4h/sqBiRapEq1YVI4pk7Jt7V0XBSyxYBwqxIfLbhCsphh4/ndcHadReQ6+OPOf0DUK5QwkFWjnX/3ERReDu8EmWHUqUc+/bdxNC5/SCKToe9qytcKoqQLhPDw80VxTeT8O3pXAR0ao/BuQnYkueIZ+5tCYdKGQrik7AhUYK541vCvlKG/LhEbLhegblTo/DTb5chbxaIeYP8USlVwM0R2Lj1Om7L3LHosTbIzSyFm7sbMq/EYOPVYnTvHYlhQWLIRFL8sjMeGVqGjwcnd0P24Ys4Kw7AcwN9USpX4vTJODbLfXpiBOwrpHBykuDymXjsTCjDwtldUJZeDjs3BwQrC/HetlsoMWPMaiqAYOK7sN4WEwChbrvaFgFB5B6AL2a1QOytIojtJZCUF2HTgWRkVdhhymMD0KYgC0VSwNPFDn/9cx1Xi2wjCEEABAsAgbcUaD7NAARW+6BKuWcTAEFjSeDAoiahJDtVXYOaazE0bkB466kuuHIxFZ4hAWiWk4xPD+diykN9YJdwG/RsRbYLQurh89jmEIkFPmn46BQRuT1efLUfdq46hvhieyx6uhNWrzmLXKUD3n+oJd76ORYBnTtgWG48tlR44+1hHvj231tIK6iEXUAQ3hzsiu/2JrP/kwLms9O74Kdfr+KR+QPx3w9HcTVXhuYR4XgtOBPPHhbjvdnBeP+HG5CKHbDyoVA8+2MiJt3fFXdOxeJqVilKq8Q5TJvSHdmHLuBaQCQmOmThjxsFyCmTI7xHR4zIj8fahAo4+vrhy2lBeH7VFSx4rCf++/M8ThWI8drC/vjjmyNIKDKdEARAqNuBytDWBUCo2363RUCo2zOuu60LgGAiIPDWAX6Gz83UuYHaLAsCGRFUxZ44awAnlGRIapnbH193kXMrUB17bUAgYuDn/3zsAvu+xmJNjRsQ3pzVFss3XkY59Q6DbXvMe7wbfvz+DIrYlaHSmYBDRHtMQzI2xpVwgLCwL37/+ihSS+3x3CMd8M2PF6GAGIunRWDprzfUgPBrSiVc3N3wyISOaJMWg1cP5sPVwx2zJnRAy5QbeO1QIQcIf0Rj0at98fUXh3GrVAn/4Gb4qlclpv8lwxtT/PHR7wmswtcXj4TjxY3xENmJ0a17OF4e6o3F35xFQqlmpsADwv4swD80AAsnt8GJf84iKbwTPE5ewqEiGeDsgc+eiMAb35zD/NldsO3nS4gpF2POgoE4uO4I4goEQKi716V1tiwAgnX60dBWBECwXv/+v73zgY3iuvP4d//YxjYGY2wnQMBgAg0kISRQjraEBtKcUkUKvVMbUaS75KQqUqUIVUmv4ppCT5Eu0kWXiy6RLkob2rQRaSNFqqr0UqW9XEtzuZa0+Ud8KQFDbEMwBhzb+L+9f6rfe/N2ZmdndmbWM7sz3t9Kq13MzNs3v/fevM/8/jIgOAAC+ROI7VlT0SsTAtn9vQCC8XxpAnBrYtBsCLlqjcrEIDfGYnkQ4knpuqiiKYzTZv6YGPSr2nLrJvxt0xCef+8KNm5sxQdHT+OjjtIA4deJFmyrn0JPuh4P76zDN16bxpYFkzibbcTBHUnsO9wnAeGn72H93duxc7QXP/twAnfcdi0+/OVb+M1wE75dAAh9uGNHO7pPjWDPl27EH3/+JrqTLfi7tbP4t6NDUIDQu6ITDZcG0LqhE+umzuKlnkb8y64GPPVaPzqu78Bn0I9Dvx7Et/6BAcG/W2H5WmJACFbWDAj+yZcBwSUgyCgF3cegcoAg+0H+B/LJOVs8UZIGCApQ1OVGGhCQwOduXIo/vH8xL8Qwnkzi09dfjWsWxvHxuUEc6x1HfMlSbIhdQdcnZOyPY+v2a3DiT2cxlopjyw2teLtrQJgLbt3Qgtf/PIjGtlasnBrCqdla7LyxDS3JNP7wbj8uoA6fv6ENSxJp/P7d8zg/lcWWjVeh64MBTCOBbTctQ0dTHL19g3izj7QVtfjshkaRGIVkf8cNzfjV+8NY09mOrdfUY+Djy/i/02NobFmMW69K4Rd/HsfeL9+Ci799B8fSi3D7xiVIj4/j9a5LuJKOYe3admxetgAjg1fwuw+GQDEWn7mpHR92XcQn6Tg2/9VK9L3bh0+m3dsu2cTg343US0sMCF6k5f1YBgTvMrM7gwGhCCAIDYF61A8dIEgthEiqROCS54yYH+aoikAZISHagODfAghHSzF8auMy/P32VvzwyHF0lymNGgNCZUafASFYuTMg+CdfBoRiGgTNtCDs/iEFBKFDIAeEjDEawToPggIFYbSIchSDf/O/qltiQKjM8DMgBCt3BgT/5MuA4GBiEM5/wv8g38QgHANF8SQ9pbLagO3zIOiJjNz5IKiqkdaJkszFmvRiTxogkEOkdn352gPqd1L7n0xeFUn5x+rNpOjf0gp/SwwIlRkjBoRg5c6A4J98GRBKBIQCHwSR40CDBttEScECgroUypkgtvkiUQwECBJoIpgHwb/5X9UtMSBUZvgZEIKVOwOCf/JlQJgrIFC0YJYiBeLIakmSKqVBkMoOgoM4MpmMIyDQ8RSMQZoHFbbJGgT/FlfYW2JAqMwIMSAEK3cGBP/ky4AwR0AQEQVaWmSKQE84pFpWRZvmZmIgE4E0edDLrtwz4lmTb4J+sblkSpoGgQHBv0UVlZYYECozUgwIwcqdAcE/+TIgzBkQSHsg0ygXAwRVzEkv6uQmD4KdD4I7QBB+iJrzonnKmAHB6MDIPgj+LbAwt8SAUJnRYUAIVu4MCP7JlwGhbIAgDACa3d9toqS5A4IKfxSaBpk4QbysAEH9n6gZIfpaGFOvuTdQqifLWSg1JPkVKPV2888ZGZvCVw48B8+1GPyb/1XdEgNCZYafASFYuTMg+CdfBoQqAgQjJJgBQeBLrqCTjMxgQPBvoYWxJQaEyowKA0KwcmdA8E++DAgmQLj9C3fI0EVVAUGLTLDLpChTL7sxMSgNgtp8nU0MqiqjOUTRqVgTnSd+zRDFYJ4ybvMgmDMwsgbBv8VX6ZYYECozAgwIwcqdAcE/+TIg2ACCKnSg2+atUy1HFRBIgyDLRzuHORohgQHBv8VX6ZYYECozAgwIwcqdAcE/+TIgWACCgAKpczckEZp/gCAvXVb/y9cUyERJ9H9mDYIsSCF0G5azkH0Q/FucQbfEgBC0hK3bZ0AIVu4MCP7JlwFhroAQjymFvgAKMk9Y5UGQP0OQEQ4Tg9EHQWoSjBu+fSZFBgT/Fl+lW4oMIBz4OWrqF1ZaXL79fiY9i1/9+z40N9agv7/ft3aLNUTrO4OsLdjTucol2Rr9y9JNX36EAcEXMYpGGBBsAEE9VUsTA9n05SZqLvcs/6Y2/2gCgrpWPcqhSKplTQ6UGMrqxRoE/xZn0C2FGRBmZ2extK0V4+Pj2PbVR7DsU5/VUp4HLZWA289mMdjXhTeeexA3bdqEt99+O+Af1B5NGBDKIuf59iMMCCUCgtH8MF8AQYlCRkPaRDHQcwZpSjQTg9kEwYAQnVtEmAGBpPjKK69gz998CYgnseKGXbh5zzehUpxHR8p6T1MzUzj+X/+Bc8dfQzaTxgsvvIC9e/eW5VJYg1AWMc+7H2FAmAsg0DYqijXNDw2CQRTa16zmyKgrHTV2KFBVKlBgQIjOPSLsgEDpwr/3/e/h2w8/jJGREdQ1LkFr581Ytfmv0da5JRKwQCBw8fRbOHf8v3HpzDuYHvsEtbW1ePrpp3HfffcV+vgENH2qCRDeeOMN7NixAy0rr8etX3syIIlWR7MnfvMcPvzt83jkkUdw8ODB6rhom6uMHTr03SyFORo3O2ViUCZGq7ZcAAANaElEQVR6Wb0xgxgoTSElHIoL252q6qhMEOIpWzspkcjVVCyvDwJFKCiHS9NFF0uUpDIpKgdG46l2UQwMCNFbO2EHBCXRvr4+HPrn7+Lll1/G8PCw+POCpqVo67wFS1ffhEXtq9HYsgK1DYsqOwjZLGYmRzE2eA6jF3twufc9XD7zDqZGB0W/WlpacPfdd+Oxxx5Da2trWftaTYAwNDSE1atXYyoF3Pb176N+UXllXdaBDfDH0rPTeP3wfowOnAFB1/bt2wP8tfA3HRggUEEkuYGW2UkxnqVftJS8G0BQIZDGDIxuwhzleYU+CmZzBGdSrOyiiAogKCmRX8IPfvgDPPnUUzh//jxGR0fzsoPWNixG6+pNaOnYJJ4e6xqbEU8kEU/UIJ6sEdlDhcaPFqTNurAbEdIEZDMZZDIpZFKzIEdDes+Mj2Cw7/8x2PMeBvvex8zESK4JemhYuHAhli5digMHDuDee+8V2oNKvKoJEEi+Dz74IJ544gkkkrXYef9/CojMFa+pxABE7Denx4fw++cPYKS/Gzt37sTRo0cjdgX+d3f+AYIhVbJ5c/YCCErUBApuAEGGR0oNi/FlBwhUnnpB0xL/R5RbLCqBTCqF6YkR3HLdSjz5rS87Soumkxp/MbVEyCt9Uf7v1o6rjg2b50lhhu+8I1KpFMbGxjAwMIAXfvIT/OjHP8LZs2cL55uAgSTi8QRiiQRi9CmiiOIiKqK2frHQOsQTtZqpMI5sNoNsNo10agazE6Niw5+dGpN/z9CbQCGNDH2mU+Lv5ldHR4cwH9xzzz1YtmwZmpqakEgUrgevcpnL8dUGCAST+/btw0svvYR4shbLN+zA5j3/iERNZQBtLmNXznPpHn/yd0fQ/b8/RWpmEuvXr8exY8fQ3Nxczm6E8rdygECmAXn/M9ZOkLkVSzExeNEgGE0C6mZm3FhV1ITsh5SjXTVHY6pkPwBB/JZ424dLWfkg5Jsf9LEfnZjG3n/6MaZnU6GcENXSqc9t7sS/7t/jeLlhAQSrjpJauX/gAi5cuAAySZw4cUJ8EjjQJ4UTptNpx2t0OoDW3fLly7Fq1arce8OGDVi5cqWAAXqH8WZabYBA4zg9PY3Dhw8L7Q1pmwgGyXdl1S1fRFvnzVp0mtOIV8f/Xxk4g54//QIDp97ExFC/ANoHHngAhw4dEqYxfgEOGoTyAEI+DMinnbABAk0Wu1hpL4BAtPrWiY8xODyhzT/ymXBS/mpJsPPyNjid42V6F4sCt8o6ad02QZtoqdjTsMk/RDmACvka/+HYfYGz8se07utXUTyqnTa8bdd3oGVxg+OvhBkQROeFFc/qeuOgJ8rBwUGxUag3aSHoezqdAjlE0lvkMYnHkEwmxZO/epOpYNGiRcJ3oNLaAMeBsjigGgFBiYHMUY8++iiOHDmS82FpWHI1rrlxN9rWbsWiqzpRW99Uilgje056dgajlz7C5Z7j+Pj9/8Hw+ZPiWurq6nDXXXcJh8TNmzdH9vqC6HgoAEFdmO4cGTJA0O6/KszR6J8g7tEO1RzNmgzdIVJeuVWBqPzBJnkU7rqF7ZY6RezV5NZpqYsAgoOq3Nxnpb7XAcGtyl4HBLU/yk/1d39S30QZELzNBosMot4aCN3R1QwIajAmJyfx7LPP4plnnkFPT4/IsaFezcvXC2BoX7cN5MtSU9cgTBPz4UXmsNT0BGYnR0UODgKCi91/zF0a+cWQVoxMYg899BDa29vnw2X7fg0CEHbf/gXxFKE2O32jLo8GIWqAILYhQxlpJ0DQISJ3pXn6CAYEDZQEXDAgeFrlRTQIntqxSjHurYHQHc2AoA8JmZpIc/Tiiy/i8ccfx6lTp/T/jMWEYyM5ttYvbkPrmptltEzHJtQsaAzduFp1KJ2axdC5D3D5o3dEaO3opV7pVJuaEX406kXasPvvvx/79+8XZoSamppIXF+lOpnTIOTDgcqkKLWXwvZP0QFZHSJUimXls2BOtezJB0G7+rlpEOQTo1Hb6psPgkmDYD1YNAmdoxhkH/M9yhkQGBAsFETu7gkMCLZyYkCwn0KXLl3CmTNn0NXVhVdffVW8r1y5kn9CLCbMELWNzaipa5Tv+ibUN1+FhsXtqG++WnzWNpL2YaHvzpAUcUTOsrNTo5gcvoiJkYuYGB7A5MgAZsaHMTs9gdTUuHA6npkYzgMBuhAyi+3evRt33nkntm7dijVr1mDFihW5h2F3C6y6jyoKCOY8CEAir6BTsTwI1QQIJCfp2e0OEJSJQXdkdNDLU4omNjGYViqbGCQR2/sgeLu1sYnBm7zm19GkEVWOruTsevLkSWGS6O3tFU6vBfBgcfkUMZOsrRfvBH3Wye+kmZBZeJXpOKZFzmToxikiZCh6gN5p+pym71PIpGcchdzQ0CBMBRRFQ3kgrr32Wlx33XXivW7dukj6zjhedBkPcAUI4sle5BeQT745rYGIKtBrNRgTJVUXINBdWgKCtX+CeURlfghda8OAIGTBJgbvS58BgTUI3meN5zMmJiZw+vRpdHd3C/MEfadPcoKdmZkBheHSmxxjzd/JEVbdF82mWbV/kIMsqfvp0+o7OcvS5k/vtWvXis2fvi9ZwqHingfTwwnuAUFLBKSHQcoiTQwI1k6KaiFYOxLqgCAhwVxZ0jyCrEEonNOsQWANQvE7HZsYPOwEJR4q8sQ4vFXTxR6ejPuK3fcSu8inzUECRaIYpGZAPeXSp3JklJ+UH4GSsLAGwclJ0bwwnKIYCqGCAYEBwWaVswaBNQhz2AD4VJZAMQnkohiKUZvasBgQrEPnnACBBiAfEgo1CFaDpIMCAwIDAgOC11s5axC8SoyPZwnkSyB28OChvGJNRrNBKRoEtYVSsSZ5vnMtBtWlqEYxuAGEfDWbO0DQ5UKaGs6DkD912cTAJgY2MfCGxhIIUgKx73znYHbX7ttz8aBmTYIyMai/66YGs4lBFitSUMGAIIfNzgfBkEbBU6IkY3v0nTQT1r9h8cytMg4WsAYnSrJbZJwoKcjbT7BtswYhWPly6/NfAgIQbtu1W2wy5D1qp0HwHRDiFBORv7nNTYNQuCGbN85SijUJ84BDHgQvGgStl4ZEScbCP3YTrtDEYBwPp2mqICKv6FDeSQwIDAgc5ui0jvj/WQLVJgEBCJ+/bZcABIIDMyQEqUGg8lDGjY4BwT0gmLUTZhiy8hhmQPC+vFmD4F1mYTmDNQhhGQnuR1QlkAcIarOmeFSlSQgGEOLIEpAoDYJWwKd0QBC9LFDpR0ODkF+LoTDigS7L3klRaQcYEFQWTa7FIG9GblNWq1sXaxCiehPnfrMEgpJAzsSgP5FSZTcgmaxBImGuzyA3YeswR+WDILtK59o6Kcap7F9MJMbxV4NADpG6qKIICMaB1mFh7lEMwl+BfRA8ryPWIHgWWWhOYA1CaIaCOxJRCRQAgkyHKesFiBKwiQRihoRIDAiFIz03HwTnao7ZLIHP3KIYGBBKW6EMCKXJLQxnMSCEYRS4D1GWgC0gkMqeAIGKMJFfgoIEBoTyA4JUF+sVyVQP3EYvKO0QaxC8L1UGBO8yC8sZDAhhGQnuR1QlYAEIqtaC1CQoICBNQjyRyP27MJMimxi8FmvSN3r3tRgKy0y7m3qsQXAnJ/NRDAilyS0MZzEghGEUuA9RloArQFARDuR7QCU0hQ8ClYHWqnOJ/8/VapDiYB8EKQfrp3xviZLsnBSpfaUVEL9VhDMYEEpbpgwIpcktDGcxIIRhFLgPUZaAK0AQEQ20AWm+CMLkQICQV4uBNQjl0CCUOtkYEEqTHANCaXILw1kMCGEYBe5DlCXgGRCUyYE0BIkEgYKMHCBfBVEQWrNLFM2kyFEMhkRJzk6KxTQIbicfA4JbSeUfx4BQmtzCcBYDQhhGgfsQZQkUBQTyM1BhiLTxkwZBAQJxAAECmRzEMVKfXnFAID271psC9X44MykyIKgFJE0kbuP3uRaDtGHJdVf4citHdSbnQYjyjZz7zhIIQgIlA4KEB90nISH8EioHCNJ5T+ZwyG04phsnA4KUTKGvAqdatltcrEEI4rZTnjZZg1AeOfOvzF8JlAwIKlcCiYbgQGgS4vGyaxD0YkXS8Y8BwXqysomhtEXMgFCa3MJwFgNCGEaB+xBlCZQMCIVhjtIEQeGQQlFMORTI18Cy3DMlWSa/hbllUlRPwjJSQMv6mNCfkKOeSVGfWNaZFL1MPAYEL9IyaKGyeqSImG+CjI0Ftryq8m0AzinS1VbFwSYGW9HEYsggS4nKbQdfid3+iNLmDZ/FEpgPEvAVEGixESDIEEeVkpmcGGXaZal1kFkaGRD0W5JVlsT8ycWAULjY2AdB2osYEBgQ5sNWxNcQRgn4CgjKB0E6MEpQYA2C1bOJf3kQ3E4q1iC4lVT+cWxiKE1uYTiLTQxhGAXuQ5QlEAggSBODHuUgIUHXIMgsS/FcNUdlCpDH0NOyKvQkRZsLpRR5GOTfKEEQmxjcTz0GBPeyMh7JgFCa3MJwFgNCGEaB+xBlCQQGCMY8CBQOKctHs4lBQx7f8yAYgclqQjIglLZMGRBKk1sYzmJACMMocB+iLIG/AEHX130xRRa2AAAAAElFTkSuQmCC;" vertex="1" parent="yZfeMcDywdAlZ5j1CTvz-1">
          <mxGeometry x="20" y="50" width="961.04" height="495.31" as="geometry" />
        </mxCell>
      </root>
    </mxGraphModel>
  </diagram>
</mxfile>
